<svg width="600" height="465" viewBox="0 0 600 465" fill="none" xmlns="http://www.w3.org/2000/svg">
<g clip-path="url(#clip0_164_6951)">
<path d="M271.443 147.832C312.484 107.774 348.017 58.3726 454.534 84.1156C561.051 109.859 503.361 230.033 544.083 245.39C544.083 245.39 629.281 275.624 587.44 360.753C545.6 445.881 414.929 408.75 313.443 323.943C266.213 284.486 199.979 217.602 271.443 147.832Z" fill="#EFF1F7"/>
<path d="M79.9062 223.142H296.688" stroke="#D4D3DC" stroke-width="3.2508" stroke-miterlimit="10" stroke-linecap="round"/>
<path d="M297.61 67.648H76.4964V215.848H297.61V67.648Z" stroke="#D4D3DC" stroke-width="3.2508" stroke-miterlimit="10" stroke-linecap="round"/>
<path d="M109.752 67.648V215.848" stroke="#D4D3DC" stroke-width="3.2508" stroke-miterlimit="10" stroke-linecap="round"/>
<path d="M148.102 67.648V215.848" stroke="#D4D3DC" stroke-width="3.2508" stroke-miterlimit="10" stroke-linecap="round"/>
<path d="M186.452 67.648V215.848" stroke="#D4D3DC" stroke-width="3.2508" stroke-miterlimit="10" stroke-linecap="round"/>
<path d="M224.802 67.648V215.848" stroke="#D4D3DC" stroke-width="3.2508" stroke-miterlimit="10" stroke-linecap="round"/>
<path d="M263.151 67.648V215.848" stroke="#D4D3DC" stroke-width="3.2508" stroke-miterlimit="10" stroke-linecap="round"/>
<path d="M297.37 190.801H76.4964" stroke="#D4D3DC" stroke-width="3.2508" stroke-miterlimit="10" stroke-linecap="round"/>
<path d="M297.37 159.422H76.4964" stroke="#D4D3DC" stroke-width="3.2508" stroke-miterlimit="10" stroke-linecap="round"/>
<path d="M297.37 128.082H76.4964" stroke="#D4D3DC" stroke-width="3.2508" stroke-miterlimit="10" stroke-linecap="round"/>
<path d="M297.37 96.703H76.4964" stroke="#D4D3DC" stroke-width="3.2508" stroke-miterlimit="10" stroke-linecap="round"/>
<path d="M167.999 285.621C167.999 285.621 96.2731 332.87 63.3788 343.37C30.4845 353.87 19.7738 419.273 70.078 429.292C82.4335 431.737 96.3534 432.739 110.835 433.22C164.589 435.023 241.69 358.278 223.237 307.782L167.999 285.621Z" fill="#EFF1F7"/>
<path d="M76.4964 86.0428C91.6725 86.0428 103.975 73.7522 103.975 58.5909C103.975 43.4296 91.6725 31.1389 76.4964 31.1389C61.3203 31.1389 49.0176 43.4296 49.0176 58.5909C49.0176 73.7522 61.3203 86.0428 76.4964 86.0428Z" fill="#77C613"/>
<path d="M64.6224 54.9039L76.5366 68.169L91.2588 47.3296" stroke="white" stroke-width="6.9027" stroke-miterlimit="10" stroke-linecap="round" stroke-linejoin="round"/>
<path d="M466.334 163.55C469.081 163.55 471.308 161.325 471.308 158.58C471.308 155.836 469.081 153.611 466.334 153.611C463.587 153.611 461.36 155.836 461.36 158.58C461.36 161.325 463.587 163.55 466.334 163.55Z" stroke="#317AC1" stroke-width="3.7153" stroke-miterlimit="10" stroke-linecap="round"/>
<path d="M200.793 25.0806C201.46 22.2589 199.711 19.4312 196.886 18.7649C194.061 18.0986 191.231 19.846 190.564 22.6677C189.897 25.4895 191.646 28.3171 194.471 28.9834C197.295 29.6497 200.126 27.9024 200.793 25.0806Z" stroke="#317AC1" stroke-width="3.9177" stroke-miterlimit="10" stroke-linecap="round"/>
<path d="M15.1322 294.399C17.8588 294.063 19.797 291.583 19.4613 288.859C19.1255 286.135 16.643 284.199 13.9164 284.534C11.1898 284.87 9.25164 287.35 9.58734 290.074C9.92305 292.798 12.4056 294.734 15.1322 294.399Z" stroke="#317AC1" stroke-width="3.7153" stroke-miterlimit="10" stroke-linecap="round"/>
<path d="M404.304 55.9058C412.836 53.8662 418.097 45.3029 416.056 36.7792C414.014 28.2554 405.443 22.999 396.91 25.0385C388.378 27.0781 383.117 35.6414 385.158 44.1651C387.2 52.6889 395.772 57.9453 404.304 55.9058Z" fill="#FFCCAB"/>
<path d="M405.051 50.2601C410.474 47.9552 412.999 41.6948 410.692 36.2771C408.385 30.8595 402.119 28.3362 396.696 30.6411C391.273 32.9461 388.747 39.2064 391.054 44.6241C393.361 50.0417 399.628 52.565 405.051 50.2601Z" fill="#F9A56E"/>
<path d="M321.759 66.9667C321.8 67.7282 321.96 68.4896 322.281 69.2511C323.645 72.2167 327.135 73.5392 330.103 72.1766C332.31 71.1747 333.634 68.9705 333.553 66.6862C333.513 65.9248 333.353 65.1633 333.032 64.4019C331.668 61.4363 328.178 60.1138 325.209 61.4763C323.003 62.4382 321.679 64.6423 321.759 66.9667ZM331.347 65.0832C332.27 67.087 331.387 69.4514 329.381 70.3331C327.376 71.2548 325.009 70.3732 324.126 68.3694C323.204 66.3656 324.086 64.0011 326.092 63.1195C328.098 62.2378 330.424 63.1195 331.347 65.0832Z" fill="#317AC1"/>
<path d="M335.96 79.7108C336 80.4723 336.161 81.2337 336.482 81.9952C337.846 84.9608 341.336 86.2833 344.304 84.9207C346.511 83.9188 347.834 81.7146 347.754 79.4303C347.714 78.6689 347.553 77.9074 347.233 77.146C345.869 74.1804 342.379 72.8579 339.41 74.2205C337.204 75.2223 335.92 77.4265 335.96 79.7108ZM345.588 77.8674C346.511 79.8711 345.628 82.2356 343.622 83.1173C341.616 84.039 339.25 83.1574 338.367 81.1536C337.445 79.1498 338.327 76.7853 340.333 75.9036C342.339 74.9819 344.665 75.8636 345.588 77.8674Z" fill="#317AC1"/>
<path d="M343.061 64.7626L326.814 84.1993C326.373 84.7203 325.57 84.8005 325.009 84.3596C324.487 83.9188 324.407 83.1173 324.848 82.5562L341.095 63.1195C341.536 62.5985 342.339 62.5183 342.9 62.9592C343.462 63.4401 343.502 64.2416 343.061 64.7626Z" fill="#317AC1"/>
<path d="M237.518 79.3101H212.085V206.391H237.518V79.3101Z" fill="#D4D3DC"/>
<path d="M199.168 79.3101H173.735V206.391H199.168V79.3101Z" fill="#D4D3DC"/>
<path d="M160.818 79.3101H135.385V206.391H160.818V79.3101Z" fill="#D4D3DC"/>
<path d="M122.468 79.3101H97.0353V206.391H122.468V79.3101Z" fill="#D4D3DC"/>
<path d="M244.859 51.6177L258.458 52.82L252 65.6041" stroke="#E1A624" stroke-width="14.5475" stroke-miterlimit="10" stroke-linecap="round" stroke-linejoin="round"/>
<path d="M101.689 93.1363L155.162 62.2378L184.887 94.8595L252.842 55.505" stroke="#E1A624" stroke-width="14.5475" stroke-miterlimit="10" stroke-linecap="round" stroke-linejoin="round"/>
<path d="M160.818 136.057H135.385V206.351H160.818V136.057Z" fill="#317AC1"/>
<path d="M199.168 112.493H173.735V206.351H199.168V112.493Z" fill="#317AC1"/>
<path d="M237.518 138.502H212.085V206.391H237.518V138.502Z" fill="#317AC1"/>
<path d="M275.868 79.3101H250.435V206.391H275.868V79.3101Z" fill="#317AC1"/>
<path fill-rule="evenodd" clip-rule="evenodd" d="M15.734 198.337C5.42743 202.602 0.534836 214.406 4.803 224.7C9.07117 234.994 20.8853 239.884 31.1919 235.619C41.4985 231.354 46.3911 219.55 42.1229 209.256C37.8547 198.962 26.0406 194.072 15.734 198.337ZM1.79916 225.943C-3.15748 213.988 2.52529 200.285 14.4889 195.334C26.4525 190.383 40.1701 196.059 45.1267 208.013C50.0834 219.967 44.4006 233.671 32.437 238.622C20.4734 243.572 6.7558 237.897 1.79916 225.943Z" fill="#317AC1"/>
<path d="M114.967 329.944L57.522 330.145C54.7942 330.145 52.5478 327.981 52.5478 325.296L52.0664 246.867C52.0664 244.182 54.2727 241.978 57.0006 241.978L114.445 241.778C117.173 241.778 119.419 243.942 119.419 246.627L119.861 325.055C119.901 327.74 117.695 329.944 114.967 329.944Z" stroke="#317AC1" stroke-width="3.2508" stroke-miterlimit="10" stroke-linecap="round"/>
<path d="M108.027 270.352L62.7771 270.512C61.012 270.512 59.5679 269.109 59.5679 267.386L59.4877 252.638C59.4877 250.915 60.8917 249.472 62.6568 249.472L107.906 249.312C109.672 249.312 111.116 250.714 111.116 252.438L111.196 267.186C111.236 268.949 109.792 270.352 108.027 270.352Z" stroke="#317AC1" stroke-width="3.2508" stroke-miterlimit="10" stroke-linecap="round"/>
<path d="M72.2442 288.626L60.2499 288.666L60.2097 281.212L72.2041 281.172L72.2442 288.626Z" fill="#317AC1"/>
<path d="M91.4994 288.546L79.505 288.626L79.4649 281.132L91.4593 281.092L91.4994 288.546Z" fill="#317AC1"/>
<path d="M110.955 288.506L98.9608 288.546L98.9207 281.092L110.915 281.012L110.955 288.506Z" fill="#317AC1"/>
<path d="M72.3245 302.613L60.3301 302.653L60.29 295.199L72.2844 295.118L72.3245 302.613Z" fill="#317AC1"/>
<path d="M91.5797 302.533L79.5853 302.573L79.5452 295.119L91.5395 295.078L91.5797 302.533Z" fill="#317AC1"/>
<path d="M111.035 302.452L99.0411 302.492L99.0009 295.038L110.995 294.998L111.035 302.452Z" fill="#317AC1"/>
<path d="M72.4047 316.559L60.4103 316.599L60.3702 309.145L72.3646 309.105L72.4047 316.559Z" fill="#317AC1"/>
<path d="M91.6599 316.479L79.6655 316.519L79.6254 309.065L91.6198 309.025L91.6599 316.479Z" fill="#317AC1"/>
<path d="M111.116 316.399L99.1213 316.439L99.0812 308.985L111.076 308.945L111.116 316.399Z" fill="#E1A624"/>
<path d="M71.2815 264.962C70.2223 264.962 69.3746 264.133 69.3746 263.098C69.3746 262.097 70.2279 261.233 71.2815 261.233C72.3406 261.233 73.1884 262.063 73.1884 263.098C73.1884 264.098 72.3351 264.962 71.2815 264.962Z" fill="#2D4E73" stroke="#317AC1"/>
<path d="M66.4276 322.771L103.975 322.611" stroke="#317AC1" stroke-width="3.2508" stroke-miterlimit="10" stroke-linecap="round"/>
<path d="M33.774 93.6172H14.3583V113.014H33.774V93.6172Z" fill="#D4D3DC"/>
<path d="M33.774 126.359H14.3583V145.756H33.774V126.359Z" fill="#D4D3DC"/>
<path d="M33.774 159.141H14.3583V178.538H33.774V159.141Z" fill="#D4D3DC"/>
<path d="M40.6336 99.7087H63.4992" stroke="#D4D3DC" stroke-width="3.2508" stroke-miterlimit="10" stroke-linecap="round"/>
<path d="M40.6336 107.243H52.0664" stroke="#D4D3DC" stroke-width="3.2508" stroke-miterlimit="10" stroke-linecap="round"/>
<path d="M40.6336 131.609H63.4992" stroke="#D4D3DC" stroke-width="3.2508" stroke-miterlimit="10" stroke-linecap="round"/>
<path d="M40.6336 139.143H52.0664" stroke="#D4D3DC" stroke-width="3.2508" stroke-miterlimit="10" stroke-linecap="round"/>
<path d="M40.6336 163.469H63.4992" stroke="#D4D3DC" stroke-width="3.2508" stroke-miterlimit="10" stroke-linecap="round"/>
<path d="M40.6336 171.004H52.0664" stroke="#D4D3DC" stroke-width="3.2508" stroke-miterlimit="10" stroke-linecap="round"/>
<path d="M20.2151 101.953L23.3039 106.201L26.7538 99.7087" stroke="#317AC1" stroke-width="3.2508" stroke-miterlimit="10" stroke-linecap="round"/>
<path d="M20.2151 135.737L23.3039 139.985L26.7538 133.493" stroke="#317AC1" stroke-width="3.2508" stroke-miterlimit="10" stroke-linecap="round"/>
<path d="M20.2151 169.521L23.3039 173.769L26.7538 167.236" stroke="#317AC1" stroke-width="3.2508" stroke-miterlimit="10" stroke-linecap="round"/>
<path d="M427.142 184.108L320.797 184.269C316.143 184.269 312.332 180.221 312.292 175.252L311.891 118.144C311.851 113.174 315.622 109.127 320.275 109.086L426.62 108.926C431.273 108.926 435.084 112.974 435.124 117.943L435.526 175.051C435.566 180.021 431.795 184.108 427.142 184.108Z" fill="#DADCF7"/>
<path d="M339.53 120.548H326.212V172.607H339.53V120.548Z" fill="white"/>
<path d="M339.53 120.548H326.212V157.258H339.53V120.548Z" fill="#317AC1"/>
<path d="M359.628 120.548H346.31V172.607H359.628V120.548Z" fill="white"/>
<path d="M359.628 120.548H346.31V148.441H359.628V120.548Z" fill="#317AC1"/>
<path d="M379.686 120.548H366.367V172.607H379.686V120.548Z" fill="white"/>
<path d="M379.686 120.548H366.367V138.903H379.686V120.548Z" fill="#317AC1"/>
<path d="M399.783 120.548H386.465V172.607H399.783V120.548Z" fill="white"/>
<path d="M399.783 120.548H386.465V127.561H399.783V120.548Z" fill="#317AC1"/>
<path d="M419.841 120.548H406.522V172.607H419.841V120.548Z" fill="white"/>
<path fill-rule="evenodd" clip-rule="evenodd" d="M394.849 220.016C394.849 220.016 393.806 227.39 388.23 227.43C382.654 227.47 382.935 211.48 382.935 211.48L394.849 220.016Z" fill="#572A22"/>
<path fill-rule="evenodd" clip-rule="evenodd" d="M378.201 224.184C378.201 224.184 379.365 231.598 380.327 237.73C380.568 239.373 381.852 240.736 383.697 241.337C385.502 241.938 387.588 241.657 389.113 240.615C389.594 240.255 390.115 239.934 390.557 239.613C392.643 238.171 393.605 235.846 392.964 233.682C391.359 228.032 388.431 217.772 388.431 217.772L378.201 224.184Z" fill="#E6A692"/>
<path fill-rule="evenodd" clip-rule="evenodd" d="M378.763 228.312L379.686 232.72L383.376 228.312H378.763Z" fill="#873B24"/>
<path fill-rule="evenodd" clip-rule="evenodd" d="M374.751 218.814C374.751 218.814 369.617 213.043 376.356 207.072C383.095 201.101 383.898 215.448 383.657 215.648C383.456 215.808 374.751 218.814 374.751 218.814Z" fill="#572A22"/>
<path fill-rule="evenodd" clip-rule="evenodd" d="M391.239 214.526C391.72 212.242 390.236 209.957 387.949 209.516C385.502 209.036 382.454 208.394 380.006 207.873C377.72 207.392 375.835 208.996 375.032 211.2C374.069 213.805 373.347 219.455 373.347 223.623C373.347 225.988 374.671 228.432 376.958 228.873C379.405 229.354 387.147 228.512 388.752 224.264C389.955 221.058 390.557 217.932 391.239 214.526Z" fill="#E6A692"/>
<path fill-rule="evenodd" clip-rule="evenodd" d="M395.972 221.459C395.972 221.459 397.577 212.522 394.247 208.996C389.754 204.267 383.537 201.501 376.396 207.032C376.396 207.032 372.465 209.196 384.7 211.32C386.264 211.6 383.697 218.974 385.663 219.696C388.27 220.698 391.64 221.379 395.972 221.459Z" fill="#572A22"/>
<path fill-rule="evenodd" clip-rule="evenodd" d="M391.921 224.184C390.918 225.827 389.032 226.509 387.669 225.667C386.305 224.825 386.024 222.822 387.027 221.179C388.03 219.535 389.915 218.854 391.279 219.696C392.643 220.537 392.924 222.541 391.921 224.184Z" fill="#E6A692"/>
<path d="M328.659 465C443.222 465 536.094 461.519 536.094 457.225C536.094 452.931 443.222 449.451 328.659 449.451C214.096 449.451 121.225 452.931 121.225 457.225C121.225 461.519 214.096 465 328.659 465Z" fill="#E3E5EB"/>
<path d="M500.311 460.111C533.832 460.111 561.005 458.155 561.005 455.742C561.005 453.33 533.832 451.374 500.311 451.374C466.791 451.374 439.617 453.33 439.617 455.742C439.617 458.155 466.791 460.111 500.311 460.111Z" fill="#E3E5EB"/>
<path d="M502.437 394.186C502.437 394.186 501.314 372.505 511.062 361.404C520.81 350.303 515.194 327.099 528.312 319.525C541.429 311.95 548.169 307.903 548.169 307.903C548.169 307.903 547.808 333.631 536.936 342.729C526.065 351.826 529.315 365.492 525.463 378.556C521.572 391.621 513.349 402.281 513.349 402.281L502.437 394.186Z" fill="#317AC1"/>
<path d="M500.191 280.691C500.191 280.691 509.538 282.695 509.538 297.323C509.538 311.95 527.148 323.051 521.532 343.73C515.916 364.41 512.908 388.656 512.908 388.656L511.383 400.879L496.42 397.753C496.42 397.753 505.727 372.545 502.357 364.971C499.028 357.396 501.194 341.246 502.357 332.67C503.521 324.093 497.905 322.57 496.42 313.994C494.936 305.378 499.83 297.323 500.191 280.691Z" fill="#317AC1"/>
<path d="M492.168 394.426C492.168 394.426 485.509 341.005 460.798 352.587C436.087 364.209 443.188 388.295 435.686 394.426C435.686 394.426 445.795 399.516 450.288 388.936C454.781 378.356 460.798 364.209 465.652 368.738C470.506 373.266 471.027 394.426 481.618 394.426H492.168Z" fill="#317AC1"/>
<path d="M456.987 304.176C456.987 304.176 454.38 326.899 463.365 335.956C472.351 345.013 479.091 347.578 482.099 357.917C485.108 368.257 491.085 398.033 491.085 398.033L500.151 395.669C500.151 395.669 501.555 373.306 495.578 363.207C489.601 353.108 493.692 337.479 481.337 328.902C468.982 320.326 458.471 317.801 456.987 304.176Z" fill="#317AC1"/>
<path d="M501.074 456.704H497.463C486.512 456.704 477.687 447.848 477.687 436.947V393.264H520.89V436.947C520.85 447.848 511.985 456.704 501.074 456.704Z" fill="#B8C3DE"/>
<path d="M520.85 438.59V396.871C512.185 427.529 494.776 447.126 487.836 453.979C491.165 455.702 495.056 456.744 499.228 456.744C511.183 456.704 520.85 448.609 520.85 438.59Z" fill="#A1AECF"/>
<path d="M492.168 394.426C492.168 394.426 491.927 375.871 483.904 364.971" stroke="#44538C" stroke-width="3.5137" stroke-miterlimit="10" stroke-linecap="round" stroke-linejoin="round"/>
<path d="M504.363 391.942C504.363 391.942 514.753 381.642 512.506 369.74C510.3 357.837 511.704 354.591 514.913 349.141C518.163 343.69 519.928 330.505 521.452 327.58" stroke="#44538C" stroke-width="3.5137" stroke-miterlimit="10" stroke-linecap="round" stroke-linejoin="round"/>
<path fill-rule="evenodd" clip-rule="evenodd" d="M215.696 456.985C216.899 456.985 217.741 456.023 217.581 454.781L196.4 307.061C196.24 305.859 195.117 304.857 193.913 304.857C192.71 304.857 191.867 305.819 192.028 307.061L213.208 454.781C213.369 455.983 214.492 456.985 215.696 456.985Z" fill="#317AC1"/>
<path fill-rule="evenodd" clip-rule="evenodd" d="M246.303 319.765C239.002 327.019 227.489 329.944 216.056 334.313C203.46 339.082 200.692 349.141 200.893 358.599C201.094 368.858 209.638 377.194 219.908 377.194H220.469C234.75 377.154 246.343 365.612 246.343 351.305V319.765H246.303Z" fill="#989EA1"/>
<path fill-rule="evenodd" clip-rule="evenodd" d="M261.066 457.185C262.028 457.386 262.951 456.784 263.111 455.823L285.656 331.828C285.816 330.866 285.215 329.944 284.252 329.744C283.289 329.544 282.367 330.145 282.206 331.107L259.662 455.101C259.461 456.063 260.103 456.985 261.066 457.185Z" fill="#317AC1"/>
<path fill-rule="evenodd" clip-rule="evenodd" d="M330.264 457.987C331.227 457.867 331.869 456.985 331.748 456.023L312.854 330.505C312.694 329.544 311.811 328.862 310.848 328.983C309.886 329.103 309.244 329.984 309.364 330.946L328.258 456.464C328.419 457.426 329.301 458.107 330.264 457.987Z" fill="#317AC1"/>
<path fill-rule="evenodd" clip-rule="evenodd" d="M270.934 428.25H323.605C324.568 428.25 325.33 427.489 325.33 426.567C325.29 425.646 324.487 424.884 323.525 424.884H270.854C269.891 424.884 269.129 425.646 269.129 426.567C269.169 427.489 269.971 428.25 270.934 428.25Z" fill="#317AC1"/>
<path fill-rule="evenodd" clip-rule="evenodd" d="M216.578 457.185C217.541 457.386 218.463 456.784 218.624 455.823L241.169 331.828C241.329 330.866 240.848 330.746 239.885 330.546C239.885 330.546 237.879 330.185 237.719 331.107L215.174 455.101C215.014 456.063 215.615 456.985 216.578 457.185Z" fill="#758287"/>
<path fill-rule="evenodd" clip-rule="evenodd" d="M285.776 457.987C286.739 457.867 287.381 456.985 287.261 456.023L268.366 330.505C268.206 329.544 267.323 328.862 266.361 328.983C265.398 329.103 264.756 329.984 264.876 330.946L283.771 456.464C283.931 457.426 284.814 458.107 285.776 457.987Z" fill="#317AC1"/>
<path fill-rule="evenodd" clip-rule="evenodd" d="M223.959 428.25H280.441C281.484 428.25 282.327 427.489 282.286 426.567C282.246 425.646 281.404 424.884 280.361 424.884H223.879C222.836 424.884 221.994 425.646 222.034 426.567C222.034 427.489 222.916 428.25 223.959 428.25Z" fill="#317AC1"/>
<path fill-rule="evenodd" clip-rule="evenodd" d="M218.784 377.034C208.515 377.034 202.498 368.938 202.257 359.761C202.016 350.944 204.945 341.526 218.062 337.078C235.753 331.067 253.765 327.981 257.014 310.107C258.578 301.45 259.06 288.626 259.14 277.726C259.22 266.023 269.851 256.606 282.888 256.606H308.481C321.358 256.606 331.869 265.783 332.23 277.285L333.634 319.765C334.275 340.124 316.504 376.913 293.719 376.953L218.784 377.034Z" fill="#317AC1"/>
<path fill-rule="evenodd" clip-rule="evenodd" d="M274.183 208.274C274.183 208.274 282.126 223.102 277.312 231.678C272.498 240.255 265.558 213.364 265.558 213.364L274.183 208.274Z" fill="#E3CBBB"/>
<path fill-rule="evenodd" clip-rule="evenodd" d="M254.888 231.478C254.888 231.478 271.175 230.356 271.175 217.331C271.175 204.307 261.868 202.864 261.868 202.864L251.759 222.742L254.888 231.478Z" fill="#E3CBBB"/>
<path fill-rule="evenodd" clip-rule="evenodd" d="M222.876 353.91C222.876 353.91 199.89 364.249 195.678 399.797C193.392 419.273 182.36 447.968 182.36 447.968L173.214 447.567L183.523 346.055C184.566 338.881 191.466 339.963 198.205 338.561L215.174 328.101L222.876 353.91Z" fill="#E5A592"/>
<path fill-rule="evenodd" clip-rule="evenodd" d="M251.318 351.024C251.318 351.024 240.567 352.828 237.959 387.974C236.515 407.251 215.776 451.134 215.776 451.134L210.12 445.243L214.572 349.742C215.294 342.648 219.747 336.477 225.965 334.032L243.295 327.259L251.318 351.024Z" fill="#E5A592"/>
<path fill-rule="evenodd" clip-rule="evenodd" d="M209.839 443.84L202.217 449.41C200.652 450.813 192.148 453.378 192.148 453.378C191.265 455.101 192.91 456.063 194.274 456.344L219.145 456.303C219.145 456.303 224.922 455.221 220.028 444.08C215.535 445.964 210.962 447.327 209.839 443.84Z" fill="#465EB0"/>
<path fill-rule="evenodd" clip-rule="evenodd" d="M173.454 443.84L165.833 449.41C164.268 450.813 155.764 453.378 155.764 453.378C154.881 455.101 156.526 456.063 157.89 456.344L182.761 456.303C182.761 456.303 188.538 455.221 183.644 444.08C179.111 445.964 174.537 447.327 173.454 443.84Z" fill="#465EB0"/>
<path fill-rule="evenodd" clip-rule="evenodd" d="M200.773 430.735L226.206 431.737C226.206 431.737 231.34 421.598 234.429 414.144C240.607 399.195 245.942 367.976 246.343 367.415C246.744 366.854 292.115 355.753 295.003 355.072C302.504 353.228 314.98 334.874 304.51 309.025L236.315 336.236C236.315 336.236 219.506 340.484 217.461 347.377C216.137 351.826 214.773 356.114 213.208 362.767C204.905 397.953 200.773 430.735 200.773 430.735Z" fill="#E3CBBB"/>
<path fill-rule="evenodd" clip-rule="evenodd" d="M170.004 431.737L189.54 434.021C189.54 434.021 203.139 399.035 205.988 370.862C206.991 360.963 296.407 350.062 296.407 350.062L287.221 310.067L235.312 316.599C235.312 316.599 206.87 327.5 204.303 328.542C201.735 329.584 187.093 333.191 180.675 348.459C171.93 369.379 170.004 431.737 170.004 431.737Z" fill="#E3CBBB"/>
<path fill-rule="evenodd" clip-rule="evenodd" d="M223.438 281.934L238.04 243.661C241.409 234.404 250.676 230.636 257.535 235.766C260.223 237.77 260.985 242.138 259.26 245.545L237.558 287.905L223.438 281.934Z" fill="#E6A692"/>
<path fill-rule="evenodd" clip-rule="evenodd" d="M248.63 233.682L261.587 229.194L272.699 227.911L278.155 228.112L298.854 235.325C305.834 238.772 309.083 246.867 306.395 254.201L301.341 277.886C306.716 295.76 309.685 300.208 308.762 318.603C281.685 323.292 235.593 318.603 233.466 316.158C234.991 279.289 239.283 252.237 248.63 233.682Z" fill="#B6B9DE"/>
<path fill-rule="evenodd" clip-rule="evenodd" d="M262.911 217.411C262.911 217.411 263.954 225.226 264.836 231.719C265.077 233.442 266.2 234.925 267.805 235.566C269.409 236.207 271.215 235.926 272.579 234.844C273.02 234.484 273.461 234.123 273.862 233.802C275.708 232.32 276.51 229.875 275.948 227.551C274.504 221.619 271.937 210.799 271.937 210.799L262.911 217.411Z" fill="#E6A692"/>
<path fill-rule="evenodd" clip-rule="evenodd" d="M263.432 222.942L264.395 227.591C267.725 226.469 269.45 223.383 270.894 219.856L263.432 222.942Z" fill="#CB816B"/>
<path d="M261.828 229.194C261.828 229.194 255.329 245.304 266.401 246.026C277.473 246.747 283.53 229.995 283.53 229.995L275.427 226.388L261.828 229.194Z" fill="#E6A692"/>
<path fill-rule="evenodd" clip-rule="evenodd" d="M270.412 205.108C269.69 202.904 267.364 201.702 265.157 202.423C262.831 203.185 259.902 204.106 257.576 204.868C255.409 205.589 254.567 207.833 254.928 210.118C255.369 212.803 257.495 218.013 259.501 221.579C260.624 223.583 262.951 225.026 265.157 224.345C267.484 223.583 273.702 219.095 273.02 214.726C272.498 211.32 271.495 208.354 270.412 205.108Z" fill="#E6A692"/>
<path fill-rule="evenodd" clip-rule="evenodd" d="M259.902 219.616L263.673 218.333C263.673 218.333 264.515 220.938 262.63 221.339C260.705 221.74 259.902 219.616 259.902 219.616Z" fill="white"/>
<path fill-rule="evenodd" clip-rule="evenodd" d="M306.757 292.554L291.112 256.205C287.18 247.508 291.352 239.253 299.817 238.852C303.146 238.692 306.716 241.377 307.759 244.863L321.078 288.426L306.757 292.554Z" fill="#E6A692"/>
<path fill-rule="evenodd" clip-rule="evenodd" d="M321.078 288.426C323.043 295.279 320.997 302.412 312.252 303.414L269.289 299.487L273.381 291.512L305.714 289.227L321.078 288.426Z" fill="#E6A692"/>
<path fill-rule="evenodd" clip-rule="evenodd" d="M227.208 275.401C221.913 281.853 220.108 289.628 224.641 295.439L235.472 308.584L243.575 302.933L234.429 285.821L227.208 275.401Z" fill="#C95836"/>
<path d="M273.381 291.512L265.799 293.515C264.275 293.916 262.951 294.838 262.068 296.16L258.458 301.41C257.214 303.254 258.177 305.739 260.303 306.3L269.69 303.214C271.776 302.533 273.622 301.01 274.905 298.966L277.031 295.519L273.381 291.512Z" fill="#E6A692"/>
<path d="M236.836 300.809L244.538 301.33C246.063 301.45 247.426 302.092 248.309 303.214L251.879 307.742C253.123 309.305 252.12 312.03 249.914 312.992L240.366 311.79C238.28 311.51 236.395 310.347 235.111 308.544L232.985 305.498L236.836 300.809Z" fill="#C95836"/>
<path d="M213.128 366.614L218.423 345.013C218.423 345.013 223.799 331.547 253.524 327.299" stroke="#BFAB9E" stroke-width="2.2799" stroke-miterlimit="10" stroke-linecap="round" stroke-linejoin="round"/>
<path fill-rule="evenodd" clip-rule="evenodd" d="M251.799 208.595C251.799 208.595 247.386 221.379 248.349 228.673C248.349 228.673 252.842 232.52 254.848 231.518C254.848 231.518 253.002 214.085 259.902 208.194C259.902 208.194 262.911 206.471 262.871 202.664C262.871 198.856 255.249 201.822 251.799 208.595Z" fill="#E3CBBB"/>
<path fill-rule="evenodd" clip-rule="evenodd" d="M259.501 205.509C259.501 205.509 266.321 210.839 270.894 210.478C275.507 210.118 275.066 212.282 275.066 212.282C275.066 212.282 273.622 200.58 267.283 199.818C262.911 199.297 260.865 198.736 259.501 205.509Z" fill="#E3CBBB"/>
<path fill-rule="evenodd" clip-rule="evenodd" d="M275.707 213.043C275.667 214.927 274.344 216.41 272.779 216.369C271.215 216.289 270.011 214.726 270.051 212.843C270.091 210.959 271.415 209.476 272.98 209.517C274.544 209.557 275.748 211.16 275.707 213.043Z" fill="#E6A692"/>
<path d="M255.851 215.568C255.851 215.568 253.444 223.743 254.487 230.115" stroke="#BFAB9E" stroke-width="2.2799" stroke-miterlimit="10" stroke-linecap="round" stroke-linejoin="round"/>
<path d="M261.868 205.309L261.306 201.541" stroke="#BFAB9E" stroke-width="2.2799" stroke-miterlimit="10" stroke-linecap="round" stroke-linejoin="round"/>
<path fill-rule="evenodd" clip-rule="evenodd" d="M287.221 249.632L297.37 277.165L320.035 268.989C315.702 264.26 311.169 241.697 298.854 235.325C285.335 228.272 287.221 249.632 287.221 249.632Z" fill="#B6B9DE"/>
<path fill-rule="evenodd" clip-rule="evenodd" d="M248.63 233.682C248.63 233.682 239.885 234.283 235.272 249.392C230.658 264.501 226.607 267.546 226.607 267.546L243.174 274.239L255.891 242.98L248.63 233.682Z" fill="#B6B9DE"/>
<path d="M238.962 271.674C238.962 271.674 242.853 257.768 245.581 252.438C248.309 247.108 248.229 244.302 248.229 244.302" stroke="#9599C9" stroke-width="3.5137" stroke-miterlimit="10" stroke-linecap="round" stroke-linejoin="round"/>
<path d="M294.963 269.51L286.378 247.268V244.302" stroke="#9599C9" stroke-width="3.5137" stroke-miterlimit="10" stroke-linecap="round" stroke-linejoin="round"/>
<path fill-rule="evenodd" clip-rule="evenodd" d="M277.994 303.294H214.332V298.485H273.14C275.828 298.485 277.994 300.649 277.994 303.294Z" fill="#FAD0B9"/>
<path fill-rule="evenodd" clip-rule="evenodd" d="M246.223 303.294H185.93L167.718 262.777H226.647C227.489 262.777 228.251 263.258 228.613 264.02L246.223 303.294Z" fill="#FAD0B9"/>
<path fill-rule="evenodd" clip-rule="evenodd" d="M243.896 303.294H183.603L166.234 264.661C165.833 263.779 166.474 262.777 167.437 262.777H224.842C225.363 262.777 225.845 263.098 226.045 263.539L243.896 303.294Z" fill="#317AC1"/>
<path fill-rule="evenodd" clip-rule="evenodd" d="M206.83 283.296C207.552 285.821 205.587 287.865 202.458 287.865C199.329 287.865 196.2 285.821 195.478 283.296C194.755 280.771 196.721 278.727 199.85 278.727C202.979 278.727 206.108 280.771 206.83 283.296Z" fill="white"/>
<path fill-rule="evenodd" clip-rule="evenodd" d="M333.714 319.765C326.413 327.019 314.9 329.944 303.467 334.313C290.871 339.082 288.103 349.141 288.304 358.599C288.504 368.858 297.049 377.194 307.318 377.194H307.88C322.161 377.154 333.754 365.612 333.754 351.305V319.765H333.714Z" fill="#317AC1"/>
<path fill-rule="evenodd" clip-rule="evenodd" d="M368.614 311.75C361.273 319.084 343.743 327.019 332.23 331.387C319.553 336.196 316.705 346.335 316.906 355.873C317.106 366.213 325.731 374.629 336.081 374.629H336.682C351.084 374.589 362.757 362.927 362.757 348.54L368.614 311.75Z" fill="#317AC1"/>
<path fill-rule="evenodd" clip-rule="evenodd" d="M377.64 455.382C378.603 455.582 379.525 454.941 379.686 454.019L402.431 328.983C402.591 328.021 401.949 327.099 400.987 326.899C400.024 326.698 399.101 327.299 398.941 328.261L376.196 453.298C376.035 454.22 376.677 455.181 377.64 455.382Z" fill="#317AC1"/>
<path fill-rule="evenodd" clip-rule="evenodd" d="M447.44 456.183C448.403 456.063 449.085 455.181 448.924 454.22L429.869 327.58C429.709 326.618 428.826 325.937 427.864 326.057C426.901 326.177 426.219 327.059 426.379 328.021L445.434 454.66C445.554 455.622 446.477 456.304 447.44 456.183Z" fill="#317AC1"/>
<path fill-rule="evenodd" clip-rule="evenodd" d="M387.588 426.166H440.7C441.663 426.166 442.466 425.405 442.425 424.443C442.385 423.481 441.583 422.72 440.62 422.72H387.508C386.545 422.72 385.743 423.481 385.783 424.443C385.783 425.405 386.625 426.166 387.588 426.166Z" fill="#317AC1"/>
<path fill-rule="evenodd" clip-rule="evenodd" d="M332.751 455.382C333.714 455.582 334.636 454.941 334.797 454.019L357.542 328.983C357.703 328.021 357.221 327.901 356.258 327.7C356.258 327.7 354.253 327.339 354.052 328.261L331.307 453.298C331.146 454.22 331.788 455.181 332.751 455.382Z" fill="#758287"/>
<path fill-rule="evenodd" clip-rule="evenodd" d="M402.551 456.183C403.514 456.063 404.196 455.181 404.035 454.22L384.981 327.58C384.82 326.618 383.938 325.937 382.975 326.057C382.012 326.177 381.33 327.059 381.491 328.021L400.545 454.66C400.706 455.622 401.588 456.304 402.551 456.183Z" fill="#317AC1"/>
<path fill-rule="evenodd" clip-rule="evenodd" d="M340.172 426.166H397.136C398.179 426.166 399.021 425.405 398.981 424.443C398.941 423.481 398.098 422.72 397.015 422.72H340.052C339.009 422.72 338.167 423.481 338.207 424.443C338.247 425.405 339.129 426.166 340.172 426.166Z" fill="#317AC1"/>
<path fill-rule="evenodd" clip-rule="evenodd" d="M334.997 374.509C324.648 374.509 318.59 366.333 318.35 357.076C318.109 348.179 321.037 338.681 334.275 334.192C352.127 328.141 370.259 325.015 373.548 306.981C375.153 298.244 375.634 285.34 375.714 274.319C375.794 262.537 386.505 252.999 399.703 252.999H425.537C438.534 252.999 449.165 262.256 449.486 273.838L450.93 316.679C451.572 337.238 433.64 374.308 410.654 374.348L334.997 374.509Z" fill="#317AC1"/>
<path fill-rule="evenodd" clip-rule="evenodd" d="M351.485 337.799C353.129 339.322 353.25 342.368 351.806 345.213C349.278 350.223 338.247 357.797 341.817 375.631C344.384 388.615 345.066 427.609 341.817 446.485C341.336 449.25 339.37 448.489 337.043 449.571C334.195 450.893 331.628 455.983 331.146 453.057L317.267 364.089C316.825 361.404 317.186 358.398 318.27 355.352C320.356 349.381 324.808 344.652 329.742 342.729L340.373 338.561C340.373 338.561 341.255 345.494 342.98 347.137L351.485 337.799Z" fill="#E5A592"/>
<path fill-rule="evenodd" clip-rule="evenodd" d="M330.144 447.166L324.889 451.655C323.485 452.857 315.863 455.101 315.863 455.101C315.06 456.664 316.504 457.506 317.748 457.746L339.972 457.947C339.972 457.947 345.147 457.025 340.894 447.006C336.763 448.729 331.106 450.292 330.144 447.166Z" fill="#317AC1"/>
<path fill-rule="evenodd" clip-rule="evenodd" d="M380.087 341.446C382.454 342.769 383.376 345.574 382.333 348.219C380.488 352.948 367.972 360.963 377.68 376.713C388.431 394.106 392.883 421.438 393.605 438.991C393.726 441.556 386.946 448.609 385.582 445.924L344.786 367.375C343.582 364.931 343.301 362.165 343.823 359.28C344.906 353.669 349.158 349.101 354.734 347.097L366.688 342.729C366.688 342.729 369.496 349.061 372.024 350.463L380.087 341.446Z" fill="#E5A592"/>
<path fill-rule="evenodd" clip-rule="evenodd" d="M373.067 358.158C376.797 358.158 422.809 359.721 427.984 358.158C433.119 356.595 432.437 318.483 432.437 318.483L386.104 324.454C386.104 324.454 332.109 344.292 331.026 346.776C329.983 349.301 373.067 358.158 373.067 358.158Z" fill="#C95836"/>
<path fill-rule="evenodd" clip-rule="evenodd" d="M377.56 320.406C377.56 320.406 339.53 334.673 329.221 341.446C318.911 348.219 314.098 358.358 316.705 366.574C319.272 374.789 324.728 441.315 324.728 441.315C324.728 441.315 338.006 442.878 345.949 441.315L349.96 381.562C349.96 381.562 377.158 436.306 377.6 436.346C378.041 436.386 394.167 430.294 397.216 426.167C397.216 426.167 382.133 380.44 377.6 374.429C373.067 368.457 378.562 360.402 381.812 360.723C385.061 361.083 411.336 359.681 411.336 359.681C411.336 359.681 432.798 353.79 433.64 338.641C434.483 323.492 433.079 319.445 433.079 319.445L377.56 320.406Z" fill="#465EB0"/>
<path fill-rule="evenodd" clip-rule="evenodd" d="M337.364 288.105L368.213 247.749C374.069 239.694 387.107 234.123 392.362 241.016C394.408 243.741 393.967 248.15 386.866 260.132L357.181 289.468L337.364 288.105Z" fill="#E6A692"/>
<path fill-rule="evenodd" clip-rule="evenodd" d="M366.047 240.335L376.597 235.967L387.468 232.961L392.924 232.36L414.666 236.407C422.167 238.772 425.136 244.302 427.503 254.281L430.311 271.434C435.125 296.281 434.282 302.092 436.168 320.567C409.892 329.383 368.012 329.744 365.485 327.62C363.6 310.588 358.465 290.269 357.743 276.924C356.94 261.254 362.557 251.075 366.047 240.335Z" fill="#D4D3DC"/>
<path d="M376.878 235.967C376.878 235.967 372.826 253.039 383.978 252.037C395.13 251.075 398.62 233.442 398.62 233.442L385.623 229.875L376.878 235.967Z" fill="#E6A692"/>
<path fill-rule="evenodd" clip-rule="evenodd" d="M392.482 300.769L404.076 265.462C406.121 257.768 413.382 256.325 419.359 262.377C421.726 264.781 422.689 268.869 421.526 271.594L410.133 304.937L392.482 300.769Z" fill="#E6A692"/>
<path fill-rule="evenodd" clip-rule="evenodd" d="M412.66 297.243C412.139 304.897 409.651 311.349 400.746 311.75L355.256 304.296L358.585 296.08L398.78 291.432L412.66 297.243Z" fill="#E6A692"/>
<path fill-rule="evenodd" clip-rule="evenodd" d="M405.159 248.871L392.081 283.216L419.56 284.458C418.958 278.006 429.228 257.167 423.291 244.503C416.752 230.636 405.159 248.871 405.159 248.871Z" fill="#D4D3DC"/>
<path fill-rule="evenodd" clip-rule="evenodd" d="M366.046 240.335C366.046 240.335 357.703 241.657 350.482 263.459C347.995 270.953 341.937 278.006 341.937 278.006L365.084 287.344L372.986 250.594L366.046 240.335Z" fill="#D4D3DC"/>
<path d="M358.625 282.374C358.625 282.374 358.264 269.951 359.829 262.016" stroke="#9599C9" stroke-width="3.5137" stroke-miterlimit="10" stroke-linecap="round" stroke-linejoin="round"/>
<path d="M398.138 276.603L406.603 254.081L410.253 251.636" stroke="#9599C9" stroke-width="3.5137" stroke-miterlimit="10" stroke-linecap="round" stroke-linejoin="round"/>
<path d="M359.789 296.08L351.886 295.279C350.321 295.118 348.717 295.519 347.433 296.441L342.178 300.088C340.333 301.37 340.333 304.095 342.178 305.338L352.127 305.779C354.333 305.899 356.619 305.097 358.585 303.615L361.834 301.13L359.789 296.08Z" fill="#E6A692"/>
<path fill-rule="evenodd" clip-rule="evenodd" d="M450.89 316.759C443.549 324.093 431.875 327.059 420.362 331.427C407.686 336.236 404.838 346.375 405.038 355.914C405.239 366.253 413.864 374.669 424.213 374.669H424.815C439.216 374.629 450.89 362.967 450.89 348.58V316.759Z" fill="#317AC1"/>
<path d="M352.247 387.173C351.766 386.652 343.061 364.209 342.619 359.921C342.178 355.633 345.869 344.813 371.663 339.683" stroke="#2F3D73" stroke-width="3.5137" stroke-miterlimit="10" stroke-linecap="round" stroke-linejoin="round"/>
<path fill-rule="evenodd" clip-rule="evenodd" d="M384.499 443.559L381.25 451.334C380.689 453.138 375.393 459.029 375.393 459.029C375.514 460.752 377.198 460.752 378.402 460.311L397.416 448.769C397.416 448.769 402.551 445.283 393.646 438.991C391.038 442.558 386.946 445.683 384.499 443.559Z" fill="#317AC1"/>
<path fill-rule="evenodd" clip-rule="evenodd" d="M433.64 314.315H139.116C136.95 314.315 135.225 312.592 135.225 310.427V307.221C135.225 305.057 136.95 303.334 139.116 303.334H433.64C435.806 303.334 437.531 305.057 437.531 307.221V310.427C437.531 312.551 435.766 314.315 433.64 314.315Z" fill="#317AC1"/>
<path fill-rule="evenodd" clip-rule="evenodd" d="M151.271 456.985C150.067 456.985 149.225 456.023 149.385 454.781L170.566 307.061C170.727 305.859 171.85 304.857 173.053 304.857C174.257 304.857 175.099 305.819 174.939 307.061L153.758 454.781C153.597 455.983 152.514 456.985 151.271 456.985Z" fill="#317AC1"/>
<path fill-rule="evenodd" clip-rule="evenodd" d="M367.17 456.985C365.966 456.985 365.124 456.023 365.284 454.781L386.465 307.061C386.626 305.859 387.749 304.857 388.952 304.857C390.156 304.857 390.998 305.819 390.838 307.061L369.657 454.781C369.496 455.983 368.373 456.985 367.17 456.985Z" fill="#317AC1"/>
<path fill-rule="evenodd" clip-rule="evenodd" d="M431.554 456.985C432.758 456.985 433.6 456.023 433.44 454.781L412.259 307.061C412.098 305.859 410.975 304.857 409.772 304.857C408.568 304.857 407.726 305.819 407.886 307.061L429.067 454.781C429.228 455.983 430.351 456.985 431.554 456.985Z" fill="#317AC1"/>
<path fill-rule="evenodd" clip-rule="evenodd" d="M357.181 289.468C352.367 295.439 344.986 297.643 337.445 292.914L306.034 262.817L314.298 259.09L341.215 277.645L357.181 289.468Z" fill="#E6A692"/>
<path d="M314.298 259.09L307.037 255.884C305.593 255.243 303.949 255.163 302.424 255.604L296.287 257.487C294.16 258.128 293.318 260.733 294.682 262.497L304.029 265.983C306.075 266.745 308.522 266.705 310.848 265.903L314.699 264.541L314.298 259.09Z" fill="#E5A592"/>
<path fill-rule="evenodd" clip-rule="evenodd" d="M375.433 222.501L379.365 223.062C379.365 223.062 378.923 225.747 377.038 225.266C375.193 224.785 375.433 222.501 375.433 222.501Z" fill="white"/>
<path d="M425 38.2847V89H376V38" stroke="#D4D3DC" stroke-width="3.2508" stroke-miterlimit="10" stroke-linecap="round"/>
<path d="M363.559 36.1083L400.626 0.921753L435.967 35.5473" stroke="#D4D3DC" stroke-width="3.2508" stroke-miterlimit="10" stroke-linecap="round"/>
<path d="M126.56 275.922H147.54V228.633" stroke="#D4D3DC" stroke-width="3.2508" stroke-miterlimit="10" stroke-linecap="round"/>
<path d="M286.057 56.3466V47.4498H352.969" stroke="#D4D3DC" stroke-width="3.2508" stroke-miterlimit="10" stroke-linecap="round"/>
<path d="M435.526 127.561V175.051C435.526 175.051 433.841 183.467 429.348 183.788H381.21" stroke="#317AC1" stroke-width="3.9177" stroke-miterlimit="10" stroke-linecap="round"/>
<path d="M502.627 104.143C513.597 99.5989 518.807 87.0217 514.263 76.0512C509.718 65.0807 497.141 59.8712 486.171 64.4154C475.2 68.9597 469.991 81.5368 474.535 92.5073C479.079 103.478 491.656 108.687 502.627 104.143Z" stroke="#85A0C7" stroke-width="3.2508" stroke-miterlimit="10" stroke-linecap="round"/>
<path d="M493.7 94.9C491.7 94.7 489.6 93.7 488.2 92.5L489.4 90.7C490.8 91.9 492.4 92.8 494.4 92.8C496.8 92.8 497.9 91.5 497.9 89.5C497.8 84.3 488.9 85.5 488.9 79.3C488.9 76.5 490.7 74.4 493.5 73.9V70.7H495.4V73.9C497.4 74.1 498.8 75.1 500 76.3L498.6 77.9C497.4 76.8 496.4 76.1 494.7 76.1C492.8 76.1 491.5 77.3 491.5 79.2C491.5 83.8 500.5 82.5 500.5 89.3C500.5 92.3 498.6 94.5 495.6 94.9V98.1H493.7V94.9Z" fill="#CDD3E6"/>
<path d="M109.839 434.357C120.81 429.813 126.019 417.235 121.475 406.265C116.931 395.294 104.354 390.085 93.3834 394.629C82.4128 399.173 77.2033 411.75 81.7476 422.721C86.2918 433.691 98.8689 438.901 109.839 434.357Z" stroke="#85A0C7" stroke-width="3.2508" stroke-miterlimit="10" stroke-linecap="round"/>
<path d="M100.9 425C98.9 424.8 96.8 423.8 95.4 422.6L96.6 420.8C98 422 99.6 422.9 101.6 422.9C104 422.9 105.1 421.6 105.1 419.6C105 414.4 96.1 415.6 96.1 409.4C96.1 406.6 97.9 404.5 100.7 404V400.8H102.6V404C104.6 404.2 106 405.2 107.2 406.4L105.8 408C104.6 406.9 103.6 406.2 101.9 406.2C100 406.2 98.7 407.4 98.7 409.3C98.7 413.9 107.7 412.6 107.7 419.4C107.7 422.4 105.8 424.6 102.8 425V428.2H100.9V425Z" fill="#CDD3E6"/>
<path d="M111 442.1C110.3 443.4 102.1 450.9 100.5 451.5C96 454.1 89 454 80.3 450.5C61.3 442.9 41.5 422 36.1 403.9C33.6 395.4 33.6 389.4 37.4 385.4C39.3 383.1 44.9 377 44.9 377C46.6 376.1 47 379.2 49.3 379C53.4 378.4 58.7 379.2 64.7 381.6C83.7 389.2 103.5 410.1 108.9 428.2C111.1 435.9 113.9 438.4 111 442.1Z" fill="#E1A624"/>
<path d="M110.947 442.236C119.599 433.315 111.698 411.621 93.3014 393.78C74.9045 375.939 52.9776 368.708 44.3264 377.629C35.6751 386.55 43.5755 408.244 61.9724 426.085C80.3693 443.926 102.296 451.157 110.947 442.236Z" fill="white"/>
<path d="M111.821 441.304C120.472 432.383 112.572 410.688 94.175 392.847C75.7781 375.007 53.8512 367.776 45.1999 376.696C36.5487 385.617 44.4491 407.312 62.846 425.153C81.2429 442.994 103.17 450.225 111.821 441.304Z" fill="white"/>
<path d="M102.274 431.2C108.31 424.975 102.758 409.799 89.8724 397.303C76.9866 384.807 61.6469 379.722 55.6103 385.947C49.5736 392.172 55.1259 407.349 68.0117 419.845C80.8975 432.341 96.2371 437.425 102.274 431.2Z" fill="white"/>
<path d="M71.1 386.8C84.9 392.4 98.9 407.3 102.5 420.1C103.9 425.2 103.5 429.2 101.5 431.8C104.5 429.4 105.5 424.8 103.8 418.7C100.2 405.9 86.1 391 72.4 385.4C64.1 382 57.8 382.8 54.9 386.7C58.2 384.1 63.9 383.9 71.1 386.8Z" fill="#F2C97B"/>
<path d="M65 402.3C64.6 400 64.8 397.5 66 396.2L70.8 400.4C69.9 401.9 69.6 403.4 70.2 405.4C70.9 407.7 72.1 409.1 74 409.9C78.2 411.5 74.9 400.5 82.3 403.4C86.3 404.9 89.8 408.4 91.7 412.6L95.9 414.2L97.1 418.2L93 416.6C93.4 419.1 92.7 420.5 91.5 421.5L87.2 417.1C88.1 416.1 88.4 415.1 87.9 413.4C87.3 411.4 86.2 410 84.4 409.3C80.5 407.8 84.1 418.9 76.2 415.9C72.3 414.4 68.6 411 66.4 406.4L62.1 404.8L60.9 400.8L65 402.3Z" fill="#FFD4B3"/>
<path d="M62.3 426.9L55.8 433.9" stroke="#FFD4B3" stroke-width="2.2775" stroke-miterlimit="10" stroke-linecap="round" stroke-linejoin="round"/>
<path d="M71.4 434.7L65 441.4" stroke="#FFD4B3" stroke-width="2.2775" stroke-miterlimit="10" stroke-linecap="round" stroke-linejoin="round"/>
<path d="M81.2 440.9L74.7 447.6" stroke="#FFD4B3" stroke-width="2.2775" stroke-miterlimit="10" stroke-linecap="round" stroke-linejoin="round"/>
<path d="M91.2 445.1L85.3 451.3" stroke="#FFD4B3" stroke-width="2.2775" stroke-miterlimit="10" stroke-linecap="round" stroke-linejoin="round"/>
<path d="M101.4 446.6L95.2 452.7" stroke="#FFD4B3" stroke-width="2.2775" stroke-miterlimit="10" stroke-linecap="round" stroke-linejoin="round"/>
<path d="M53.8 417.7L47.3 424.4" stroke="#FFD4B3" stroke-width="2.2775" stroke-miterlimit="10" stroke-linecap="round" stroke-linejoin="round"/>
<path d="M47.3 408.1L40.8 414.8" stroke="#FFD4B3" stroke-width="2.2775" stroke-miterlimit="10" stroke-linecap="round" stroke-linejoin="round"/>
<path d="M42.7 398.1L36.7 404.3" stroke="#FFD4B3" stroke-width="2.2775" stroke-miterlimit="10" stroke-linecap="round" stroke-linejoin="round"/>
<path d="M40.9 388L35 394.5" stroke="#FFD4B3" stroke-width="2.2775" stroke-miterlimit="10" stroke-linecap="round" stroke-linejoin="round"/>
<path d="M123.5 430.3C122.8 431.6 114.6 439.1 113 439.7C108.5 442.3 101.5 442.2 92.8 438.7C73.8 431.1 54 410.2 48.6 392.1C46.1 383.6 46.1 377.6 49.9 373.6C51.8 371.3 57.4 365.2 57.4 365.2C59.1 364.3 59.5 367.4 61.8 367.2C65.9 366.6 71.2 367.4 77.2 369.8C96.2 377.4 116 398.3 121.4 416.4C123.6 424 126.4 426.6 123.5 430.3Z" fill="#E1A624"/>
<path d="M123.551 430.378C132.202 421.457 124.302 399.763 105.905 381.922C87.5081 364.081 65.5812 356.85 56.93 365.771C48.2787 374.692 56.1791 396.386 74.576 414.227C92.9729 432.068 114.9 439.299 123.551 430.378Z" fill="white"/>
<path d="M124.355 429.517C133.007 420.596 125.106 398.902 106.709 381.061C88.3123 363.22 66.3854 355.989 57.7341 364.91C49.0828 373.831 56.9833 395.525 75.3802 413.366C93.7771 431.207 115.704 438.438 124.355 429.517Z" fill="#D79C33"/>
<path d="M114.697 419.351C120.734 413.127 115.183 397.951 102.299 385.455C89.4147 372.958 74.0765 367.874 68.0398 374.098C62.0032 380.322 67.554 395.497 80.438 407.994C93.322 420.49 108.66 425.575 114.697 419.351Z" fill="white"/>
<path d="M83.6 375C97.4 380.6 111.4 395.5 115 408.3C116.4 413.4 116 417.4 114 420C117 417.6 118 413 116.3 406.9C112.7 394.1 98.6 379.2 84.9 373.6C76.6 370.2 70.3 371 67.4 374.9C70.7 372.2 76.4 372.1 83.6 375Z" fill="#CF9161"/>
<path d="M74.8 415.1L68.3 422" stroke="#FFD4B3" stroke-width="2.2775" stroke-miterlimit="10" stroke-linecap="round" stroke-linejoin="round"/>
<path d="M83.9 422.9L77.5 429.6" stroke="#FFD4B3" stroke-width="2.2775" stroke-miterlimit="10" stroke-linecap="round" stroke-linejoin="round"/>
<path d="M93.7 429.1L87.3 435.8" stroke="#FFD4B3" stroke-width="2.2775" stroke-miterlimit="10" stroke-linecap="round" stroke-linejoin="round"/>
<path d="M103.8 433.3L97.8 439.5" stroke="#FFD4B3" stroke-width="2.2775" stroke-miterlimit="10" stroke-linecap="round" stroke-linejoin="round"/>
<path d="M113.9 434.7L107.7 440.8" stroke="#FFD4B3" stroke-width="2.2775" stroke-miterlimit="10" stroke-linecap="round" stroke-linejoin="round"/>
<path d="M66.3 405.9L59.9 412.5" stroke="#FFD4B3" stroke-width="2.2775" stroke-miterlimit="10" stroke-linecap="round" stroke-linejoin="round"/>
<path d="M59.8 396.3L53.3 402.9" stroke="#FFD4B3" stroke-width="2.2775" stroke-miterlimit="10" stroke-linecap="round" stroke-linejoin="round"/>
<path d="M55.2 386.3L49.3 392.5" stroke="#FFD4B3" stroke-width="2.2775" stroke-miterlimit="10" stroke-linecap="round" stroke-linejoin="round"/>
<path d="M53.4 376.2L47.5 382.6" stroke="#FFD4B3" stroke-width="2.2775" stroke-miterlimit="10" stroke-linecap="round" stroke-linejoin="round"/>
<path opacity="0.29" d="M52.6 430.6C52.6 430.6 72.6 440.7 89.7 426.1C89.7 426.1 112.7 440.9 123.4 430.4C123.4 430.4 115.6 438.4 113.3 439.5C113.3 439.5 111.4 442.9 102.1 450.4C102.1 450.4 96.4 455.6 84.5 452C84.5 452 68.7 448 52.6 430.6Z" fill="#BF8456"/>
<path d="M528.2 59.7C529.2 60.7 533.9 70 534.1 71.7C535.3 76.5 533.5 82.8 528.1 89.8C516.4 105.1 492.4 117.9 474.5 118.2C466.2 118.4 460.7 116.8 458 112.4C456.4 110.1 452.3 103.4 452.3 103.4C451.9 101.6 454.8 102 455.3 99.9C455.8 96 457.8 91.4 461.5 86.6C473.2 71.3 497.2 58.5 515.1 58.2C522.6 57.9 525.6 56.1 528.2 59.7Z" fill="#89A1DE"/>
<path d="M501.215 100.108C522.096 87.8947 534.231 69.8005 528.32 59.6938C522.408 49.5871 500.688 51.295 479.808 63.5086C458.927 75.7221 446.792 93.8163 452.703 103.923C458.615 114.03 480.334 112.322 501.215 100.108Z" fill="white"/>
<path d="M500.615 99.1136C521.495 86.9 533.63 68.8059 527.719 58.6991C521.807 48.5924 500.088 50.3004 479.207 62.5139C458.326 74.7275 446.191 92.8217 452.103 102.928C458.014 113.035 479.734 111.327 500.615 99.1136Z" fill="#CED9F5"/>
<path d="M497.063 93.0872C511.699 84.5265 520.218 71.867 516.091 64.8114C511.964 57.7558 496.754 58.9758 482.118 67.5365C467.482 76.0971 458.963 88.7566 463.09 95.8123C467.217 102.868 482.427 101.648 497.063 93.0872Z" fill="white"/>
<path d="M467.8 82C476.4 70.9 493.5 61.9 506 61.9C511 61.9 514.5 63.3 516.4 65.7C514.9 62.3 511.1 60.3 505.1 60.3C492.6 60.3 475.5 69.4 466.9 80.4C461.7 87.1 460.8 93 463.7 96.6C462.1 93 463.3 87.8 467.8 82Z" fill="#8FA8E8"/>
<path d="M480.4 91.4C478.2 91.2 475.9 90.4 475.1 89L480.2 85.7C481.3 86.9 482.7 87.6 484.6 87.5C486.9 87.5 488.5 86.7 489.6 85.2C492.1 81.8 481.3 82 485.7 76C488.1 72.7 492.2 70.5 496.5 69.8L499 66.4L503 66.3L500.5 69.7C502.9 70 504 71 504.6 72.3L499.5 75.1C498.8 74 498 73.5 496.3 73.5C494.3 73.5 492.8 74.2 491.7 75.7C489.4 78.9 500.3 78.4 495.6 84.8C493.2 88 489.2 90.5 484.5 91.3L481.9 94.8L477.9 94.9L480.4 91.4Z" fill="#BFCEF5"/>
<path d="M502 100.1L506.7 107.8" stroke="#CED9F5" stroke-width="2.3731" stroke-miterlimit="10" stroke-linecap="round" stroke-linejoin="round"/>
<path d="M511.4 93.8L516 101.3" stroke="#CED9F5" stroke-width="2.3731" stroke-miterlimit="10" stroke-linecap="round" stroke-linejoin="round"/>
<path d="M519.6 86.5L524.1 94" stroke="#CED9F5" stroke-width="2.3731" stroke-miterlimit="10" stroke-linecap="round" stroke-linejoin="round"/>
<path d="M525.9 78.4L530.1 85.3" stroke="#CED9F5" stroke-width="2.3731" stroke-miterlimit="10" stroke-linecap="round" stroke-linejoin="round"/>
<path d="M529.8 69.5L533.8 76.7" stroke="#CED9F5" stroke-width="2.3731" stroke-miterlimit="10" stroke-linecap="round" stroke-linejoin="round"/>
<path d="M491.5 105.5L496 113.1" stroke="#CED9F5" stroke-width="2.3731" stroke-miterlimit="10" stroke-linecap="round" stroke-linejoin="round"/>
<path d="M481.1 109L485.6 116.6" stroke="#CED9F5" stroke-width="2.3731" stroke-miterlimit="10" stroke-linecap="round" stroke-linejoin="round"/>
<path d="M470.9 110.6L475 117.6" stroke="#CED9F5" stroke-width="2.3731" stroke-miterlimit="10" stroke-linecap="round" stroke-linejoin="round"/>
<path d="M461.3 109.7L465.6 116.7" stroke="#CED9F5" stroke-width="2.3731" stroke-miterlimit="10" stroke-linecap="round" stroke-linejoin="round"/>
<path opacity="0.29" d="M503 109.9C503 109.9 515.3 99.7 514 91.2C527.2 78.5 534.8 66.5 526.5 56.9C526.5 56.9 529.1 59.5 533.6 69.8C533.6 69.8 536.9 76.3 530.6 86.2C530.5 86.3 522.9 99.6 503 109.9Z" fill="#5693BF"/>
<path d="M531.3 234.2C531.6 234.3 532 234.3 532.3 234.4C534.8 235 536.5 236.6 537.4 239.1C536.3 239.5 535.2 239.8 534 240.2C533.9 240.1 533.9 239.9 533.8 239.8C533.1 238.4 531.6 237.6 530.1 237.9C528.6 238.1 527.5 239.4 527.3 240.9C527.2 241.8 527.5 242.6 527.9 243.4C528.3 244.1 528.3 244.1 529.1 244.1C530.6 244.1 532.2 244.1 533.7 244.1C533.8 244.1 533.9 244.1 533.9 244.1C533.9 245.3 533.9 246.4 533.9 247.6C532.4 247.6 530.8 247.6 529.3 247.6C529.3 249.1 529 250.4 528.3 251.7C528.4 251.7 528.4 251.8 528.5 251.8C529 252.1 529.5 252.4 530 252.7C531.6 253.9 533.8 253.6 534.9 252C535.1 251.7 535.3 251.4 535.6 251C536.6 251.7 537.5 252.3 538.5 253C538.2 253.4 537.9 253.8 537.6 254.2C536.1 256 534.3 256.9 532 256.9C530.5 256.9 529.1 256.4 527.9 255.5C526.4 254.3 524.4 254.5 523.1 255.9C522.9 256.1 522.7 256.4 522.4 256.6C521.5 255.8 520.7 255 519.8 254.2C520.2 253.8 520.5 253.4 520.9 253C521.6 252.4 522.3 251.9 523.2 251.6C524.7 251 525.8 249.4 525.8 247.8C525.8 247.7 525.8 247.7 525.8 247.6C525 247.6 524.3 247.6 523.5 247.6C522.7 247.6 522 247.6 521.2 247.6C521.2 246.4 521.2 245.3 521.2 244.1C522.2 244.1 523.2 244.1 524.2 244.1C524.1 243.7 523.9 243.2 523.8 242.8C523 239 525.5 235.2 529.4 234.5C529.6 234.5 529.9 234.4 530.1 234.4C530.6 234.2 531 234.2 531.3 234.2Z" fill="#317AC1"/>
<path d="M77.5 391.5C77.7 391.6 77.8 391.6 78 391.7C79 392 80 392.3 81 392.7C81.2 392.8 81.2 392.7 81.2 392.6C81.2 391.8 81.2 391.1 81.5 390.5C82 389.6 83 389.3 84.6 389.8C85.4 390 86.2 390.4 87 391C87.4 391.3 87.8 391.7 88.1 392.1C88.2 392.2 88.3 392.3 88.4 392.5C88.4 392.3 88.5 392.2 88.5 392.1C88.7 391.5 89.1 391 90.1 391C90.5 391 91 391.1 91.5 391.2C92.4 391.4 93.3 391.8 94.2 392.3C95.6 393.1 96.5 394.1 97.2 395.2C97.8 396.2 98.1 397.2 98.4 398.2C98.5 398.6 98.5 398.5 98.9 398.6C100 398.9 101 399.3 102.1 399.6C102.2 399.6 102.3 399.7 102.4 399.7C102.5 400.3 102.6 400.9 102.7 401.5C101.5 401.1 100.2 400.7 99 400.3C99.1 400.8 99.2 401.2 99.3 401.7C100.5 402.1 101.8 402.5 103 402.9C103.1 403.5 103.2 404.1 103.3 404.7C102 404.3 100.8 403.9 99.5 403.5C99.7 404.7 99.9 405.9 100.2 407.1C99.2 406.7 98.3 406.3 97.4 405.9C97.4 405.8 97.4 405.8 97.4 405.7C97.3 405.3 97.3 405 97.2 404.6C97.1 404.2 96.8 403.8 96.2 403.7C96.1 403.7 96.1 403.7 96 403.6C92.7 402.5 89.5 401.5 86.2 400.4C85.4 400.1 85 400.3 85.1 400.9C85.2 401.3 85.3 401.8 85.3 402.3C84.5 402 83.7 401.8 82.8 401.5C82.6 400.3 82.4 399.1 82.1 397.9C80.8 397.5 79.6 397.1 78.3 396.7C78.2 396.1 78.1 395.5 78 394.9C78.1 394.9 78.2 394.9 78.3 395C79.3 395.3 80.4 395.7 81.4 396C81.5 396 81.6 396.1 81.7 396.1C81.6 395.6 81.5 395.2 81.4 394.7C80.2 394.3 78.9 393.9 77.7 393.5C77.8 392.7 77.6 392.1 77.5 391.5ZM96.4 400.6C96.4 400.6 96.4 400.5 96.4 400.6C96.2 399.8 96.1 399.1 95.9 398.3C95.7 397.6 95.4 397 95 396.3C94.3 395.3 93 394.6 92.1 394.7C91.5 394.7 91.2 395.1 91.1 395.5C90.9 396.2 91 397 91.1 397.8C91.2 398.2 91.2 398.6 91.3 399C93.1 399.5 94.7 400.1 96.4 400.6ZM89.1 398.2C88.9 397.5 88.8 396.9 88.6 396.2C88.4 395.7 88.2 395.2 87.9 394.7C87 393.3 85.3 392.8 84.6 393.2C84.2 393.4 84.1 393.8 84.1 394.3C84.1 395 84.2 395.7 84.4 396.5C84.4 396.7 84.5 396.7 84.7 396.8C86.1 397.2 87.4 397.7 88.8 398.1C88.9 398.2 89 398.2 89.1 398.2Z" fill="#E1A624"/>
<path d="M396.4 40C397.8 37.7 399.2 35.3 400.6 33C402 35.4 403.4 37.7 404.8 40C404.3 40.3 403.7 40.6 403.2 41C402.4 41.5 401.6 42 400.7 42.5C400.6 42.5 400.6 42.6 400.5 42.5C399.1 41.7 397.8 40.9 396.4 40C396.4 40.1 396.4 40.1 396.4 40Z" fill="white"/>
<path d="M404.7 41.5C403.3 43.5 401.9 45.4 400.5 47.4C399.1 45.4 397.7 43.5 396.3 41.5C396.5 41.6 396.7 41.7 396.9 41.8C398 42.5 399.2 43.2 400.3 43.8C400.4 43.9 400.5 43.9 400.6 43.8C401.9 43 403.2 42.3 404.5 41.5C404.6 41.5 404.7 41.5 404.7 41.5Z" fill="white"/>
<path d="M24.2 226.636C24 226.536 23.8 226.536 23.6 226.536C20.4 225.936 18.2 224.136 17.1 221.036C17 220.836 17 220.736 16.8 220.736C16 220.736 15.1 220.736 14.3 220.736C14.1 220.836 14.1 220.836 14.1 220.736C14.1 220.136 14.1 219.436 14.1 218.836C14.1 218.736 14.2 218.636 14.3 218.636C15 218.636 15.6 218.636 16.3 218.636C16.4 218.636 16.5 218.636 16.4 218.436C16.3 217.836 16.3 217.236 16.3 216.636C16.3 216.436 16.3 216.436 16.1 216.436C15.5 216.436 14.8 216.436 14.2 216.436C14.1 216.436 14 216.436 14 216.236C14 215.636 14 215.036 14 214.536C14 214.436 14 214.336 14.2 214.336C15 214.336 15.8 214.336 16.6 214.336C16.7 214.336 16.8 214.336 16.8 214.136C17.7 211.436 19.5 209.536 22.1 208.436C23.1 208.036 24.2 207.936 25.3 208.036C26.5 208.136 27.6 208.336 28.6 208.836C29.6 209.336 30.5 210.036 31.3 210.936C31.4 211.036 31.4 211.036 31.3 211.136C30.7 211.836 30.2 212.536 29.6 213.236C29.5 213.336 29.5 213.336 29.4 213.236C28.8 212.636 28.2 212.036 27.5 211.636C26.9 211.336 26.3 211.136 25.7 211.136C24.9 211.036 24.2 211.036 23.4 211.336C22.2 211.736 21.3 212.536 20.6 213.636C20.5 213.836 20.4 214.036 20.3 214.236C20.4 214.236 20.5 214.236 20.5 214.236C22.4 214.236 24.3 214.236 26.3 214.236C26.4 214.236 26.5 214.236 26.5 214.436C26.5 215.036 26.5 215.736 26.5 216.336C26.5 216.436 26.5 216.536 26.3 216.536C24.2 216.536 22.1 216.536 19.9 216.536C19.7 216.536 19.7 216.536 19.7 216.736C19.7 217.336 19.7 217.936 19.8 218.536C19.8 218.636 19.9 218.736 20 218.736C22.1 218.736 24.2 218.736 26.3 218.736C26.5 218.736 26.5 218.736 26.5 218.936C26.5 219.536 26.5 220.236 26.5 220.836C26.5 220.936 26.5 221.036 26.3 221.036C24.4 221.036 22.5 221.036 20.6 221.036H20.5C20.7 221.436 20.9 221.736 21.1 222.036C22 223.236 23.3 223.836 24.8 223.836C26.1 223.836 27.3 223.436 28.3 222.536C28.6 222.236 29 221.936 29.3 221.636C29.4 221.536 29.4 221.536 29.5 221.636C30.1 222.336 30.6 223.036 31.2 223.736C31.3 223.836 31.3 223.836 31.2 223.936C30 225.436 28.4 226.336 26.5 226.736C26.2 226.836 25.9 226.836 25.5 226.836C25.5 226.836 25.5 226.836 25.4 226.836C25.1 226.636 24.6 226.636 24.2 226.636Z" fill="#317AC1"/>
<path fill-rule="evenodd" clip-rule="evenodd" d="M521.784 227.845C511.478 232.11 506.585 243.913 510.853 254.207C515.122 264.501 526.936 269.391 537.242 265.126C547.549 260.861 552.441 249.058 548.173 238.764C543.905 228.47 532.091 223.58 521.784 227.845ZM507.85 255.45C502.893 243.496 508.576 229.793 520.539 224.842C532.503 219.891 546.22 225.566 551.177 237.521C556.134 249.475 550.451 263.178 538.487 268.129C526.524 273.08 512.806 267.405 507.85 255.45Z" fill="#317AC1"/>
</g>
<defs>
<clipPath id="clip0_164_6951">
<rect width="600" height="465" fill="white"/>
</clipPath>
</defs>
</svg>
