<svg width="224" height="97" viewBox="0 0 224 97" fill="none" xmlns="http://www.w3.org/2000/svg">
<path d="M69.6491 -6.10352e-05L36.7468 56.9329H53.3358L69.9382 28.2044L86.5407 56.9329H103.13L70.2341 -6.10352e-05H69.6491ZM153.616 -6.10352e-05L120.714 56.9329H137.31L153.912 28.2044L170.508 56.9329H187.104L154.208 -6.10352e-05H153.616ZM128.528 -6.10352e-05L111.925 28.7285L95.3227 -6.10352e-05H78.7337L111.925 57.4502L145.123 -6.10352e-05H128.528Z" fill="#2882C0"/>
<path d="M36.7468 56.9329L69.6491 -6.10352e-05H70.2341L103.13 56.9329H86.5407L69.9382 28.2044L53.3358 56.9329H36.7468Z" fill="#2882C0"/>
<path d="M120.714 56.9329L153.616 -6.10352e-05H154.208L187.104 56.9329H170.508L153.912 28.2044L137.31 56.9329H120.714Z" fill="#2882C0"/>
<path d="M111.925 28.7285L128.528 -6.10352e-05H145.123L111.925 57.4502L78.7337 -6.10352e-05H95.3227L111.925 28.7285Z" fill="#2882C0"/>
<path d="M130.41 72.0653C130.41 69.0867 129.045 66.6462 126.553 65.2305C124.502 64.0583 122.157 63.6163 118.012 63.6163H107.959V96.163H113.431V81.142H116.346L126.412 96.1694H132.37L121.613 80.5463C121.747 80.5206 121.658 80.5206 121.658 80.5206C127.507 79.7904 130.41 76.6453 130.41 72.0653ZM124.65 72.2574C124.65 76.8951 122.113 79.4317 117.474 79.4317H113.425V65.2818H117.186C119.178 65.2818 120.645 65.5764 121.779 66.2106C123.625 67.2355 124.65 69.4326 124.65 72.2574Z" fill="#2882C0"/>
<path d="M77.4106 63.6227V65.4291H88.9753V96.1694H94.4469V65.4291H105.967V63.6227H77.4106ZM152.898 63.3281H150.265L136.009 96.1694H139.623L143.627 85.581H156.416L160.664 96.1694H166.712L152.898 63.3281ZM144.313 83.7747L149.823 69.1379L155.685 83.7747H144.313ZM190.873 65.9159C187.695 64.1095 184.959 63.6227 178.418 63.6227H169.441V96.1694H177.393C184.613 96.1694 187.4 95.6762 190.764 93.7289C195.358 91.1411 197.799 86.2152 197.799 79.579C197.805 73.3848 195.268 68.3564 190.873 65.9159ZM188.919 90.6478C186.67 93.383 183.742 94.4079 178.078 94.4079H174.907V65.3778H178.719C183.012 65.3778 185.696 66.1081 187.746 67.8632C190.476 70.1564 191.892 74.3008 191.892 79.9633C191.898 84.6522 190.873 88.2137 188.919 90.6478ZM222.549 63.6227H202.245V96.1694H223.318V94.3631H207.711V80.3092H220.928V78.5029H207.711V65.4291H222.549V63.6227Z" fill="#2882C0"/>
<path d="M17.415 63.3281H14.7817L0.53241 96.1694H4.13958L8.14398 85.581H20.9324L25.1739 96.1694H31.235L17.415 63.3281ZM8.82954 83.7747L14.346 69.1379L20.202 83.7747H8.82954ZM38.9875 96.5089H41.8194L55.3447 63.6227H51.6863L42.2103 90.2635L31.9077 63.6227H25.9043L38.9875 96.5089ZM65.6921 63.3281H63.0588L48.8031 96.1694H52.4167L56.4211 85.581H69.2095L73.451 96.1694H79.5121L65.6921 63.3281ZM57.1002 83.7747L62.6103 69.1379L68.4727 83.7747H57.1002Z" fill="#2257A7"/>
</svg>
