<svg width="262" height="66" viewBox="0 0 262 66" fill="none" xmlns="http://www.w3.org/2000/svg">
<path d="M50.1293 0C59.736 0 65.8493 6.05511 65.8493 15.72V50.1293C65.8493 59.736 59.7942 65.8493 50.1293 65.8493H15.72C6.11333 65.8493 0 59.5031 0 50.1293V15.72C0 6.11333 6.05511 0 15.72 0H50.1293Z" fill="url(#paint0_linear_164_2495)"/>
<path d="M9.89777 44.7729V37.6698L20.7853 27.0734H39.5329L55.7187 10.3636V17.4667L41.5707 31.6147H23.056L9.89777 44.7729ZM9.89777 56.1845V49.0814L24.2787 34.6423H43.0262L55.9515 21.7169V28.82L45.064 39.4747H26.3164L9.89777 56.1845Z" fill="white"/>
<path d="M87.1005 45.2969H103.286V50.3622H80.9871V14.9049H87.0422C87.1005 14.9049 87.1005 45.2969 87.1005 45.2969ZM114.174 50.1293H108.352V23.8129H114.174V50.1293ZM107.828 16.9427C107.828 16.1858 108.06 15.196 108.584 14.672C109.108 14.148 110.098 13.9151 111.088 13.9151C112.078 13.9151 113.126 14.148 113.592 14.672C114.057 15.196 114.348 15.9529 114.348 16.9427C114.348 17.6996 114.116 18.6893 113.592 19.2133C113.068 19.7373 112.078 19.9702 111.088 19.9702C110.098 19.9702 109.05 19.7373 108.584 19.2133C108.119 18.7476 107.828 17.9325 107.828 16.9427ZM144.042 38.1938C144.042 42.2693 143.285 44.7729 141.247 47.0436C139.209 49.3142 136.939 50.5951 133.678 50.5951C130.651 50.5951 128.089 49.6054 126.575 47.2765V50.304H121.277V12.8671H127.099V26.5493C128.846 24.5116 131.175 23.5218 133.911 23.5218C137.23 23.5218 139.733 24.5116 141.48 27.0733C143.518 30.1009 144.042 34.9333 144.042 38.1938ZM136.706 30.392C135.716 28.8782 134.202 28.3542 132.397 28.3542C129.894 28.3542 128.089 29.344 127.099 31.6729V42.5605C128.089 44.8311 129.894 46.112 132.688 46.112C134.435 46.112 136.007 45.3551 136.997 44.0742C137.987 42.7934 138.511 40.5227 138.511 37.728C138.452 37.728 138.452 32.3716 136.706 30.392ZM161.276 50.5951C157.491 50.5951 154.464 49.6053 152.135 47.0436C149.864 44.54 148.583 41.4542 148.583 37.6698V36.9711C148.583 34.4676 149.107 31.9058 150.097 29.868C151.087 27.8302 152.6 26.3165 154.405 25.0356C156.152 23.7547 158.19 23.2889 160.46 23.2889C164.012 23.2889 166.807 24.2787 168.786 26.8405C170.824 29.1111 171.581 32.4298 171.581 36.4471V38.7178H154.347C154.58 40.9885 155.104 42.5022 156.618 44.016C157.899 45.2969 159.412 46.0538 161.45 46.0538C164.245 46.0538 166.516 45.064 168.029 42.7351L171.348 45.7627C170.358 47.2765 168.844 48.5574 167.04 49.3142C165.293 50.3622 163.546 50.5951 161.276 50.5951ZM160.519 28.0631C158.772 28.0631 157.724 28.5871 156.443 29.8098C155.453 30.7996 154.696 32.6045 154.405 34.6422H165.817V34.1182C165.817 32.0805 165.06 30.5667 164.303 29.5769C163.546 28.5871 162.265 28.0631 160.519 28.0631ZM190.62 29.344C189.863 29.344 189.106 29.1111 188.116 29.1111C185.321 29.1111 183.575 30.1009 182.527 32.1387V50.1293H176.704V23.8129H182.527L182.76 26.8405C184.273 24.5698 186.078 23.2889 188.815 23.2889C189.572 23.2889 190.328 23.2889 190.852 23.5218L190.62 29.344ZM203.545 17.4667V23.8129H208.086V28.1213H203.545V43.0845C203.545 44.0742 203.778 44.8311 204.069 45.3551C204.36 45.8791 205.059 46.112 206.107 46.112C206.864 46.112 207.388 46.112 208.144 45.8791V50.4205C206.864 50.6533 205.641 50.9445 204.36 50.9445C199.819 50.9445 197.548 48.4409 197.548 43.3756V28.4125H193.24V24.104H197.548V17.5249H203.545V17.4667ZM224.796 50.5951C221.012 50.5951 217.984 49.6053 215.655 47.0436C213.384 44.54 212.104 41.4542 212.104 37.6698V36.9711C212.104 34.4676 212.628 31.9058 213.617 29.868C214.607 27.8302 216.121 26.3165 217.926 25.0356C219.672 23.7547 221.71 23.2889 223.981 23.2889C227.532 23.2889 230.327 24.2787 232.307 26.8405C234.344 29.1111 235.101 32.4298 235.101 36.4471V38.7178H217.868C218.1 40.9885 218.624 42.5022 220.138 44.016C221.419 45.2969 222.933 46.0538 224.971 46.0538C227.765 46.0538 230.036 45.064 231.55 42.7351L234.868 45.7627C233.879 47.2765 232.365 48.5574 230.56 49.3142C229.104 50.3622 227.067 50.5951 224.796 50.5951ZM224.272 28.0631C222.525 28.0631 221.477 28.5871 220.196 29.8098C219.207 30.7996 218.45 32.6045 218.159 34.6422H229.57V34.1182C229.57 32.0805 228.813 30.5667 228.056 29.5769C227.067 28.5871 225.786 28.0631 224.272 28.0631ZM250.123 32.6627L255.188 24.0458H261.767L253.674 36.9711L262 50.3622H255.654L250.356 41.5124L245.057 50.3622H238.478L246.804 36.9711L238.711 24.0458H245.29L250.123 32.6627Z" fill="#222222"/>
<defs>
<linearGradient id="paint0_linear_164_2495" x1="33.0356" y1="65.811" x2="33.0356" y2="0.000172596" gradientUnits="userSpaceOnUse">
<stop stop-color="#FF5208"/>
<stop offset="1" stop-color="#FFA408"/>
</linearGradient>
</defs>
</svg>
