<svg width="210" height="99" viewBox="0 0 210 99" fill="none" xmlns="http://www.w3.org/2000/svg">
<path d="M81.9157 67.8705H75.5114L62.4915 31.0632H68.5441L78.6785 59.6363L88.883 31.0632H94.9356L81.9157 67.8705Z" fill="#424B52"/>
<path d="M134.135 51.9651H102.958C103.803 58.7213 108.729 63.2959 115.485 63.2959C120.623 63.2959 124.634 60.6217 126.675 56.5397H133.009C130.335 63.8589 123.719 68.7148 115.485 68.7148C104.858 68.7148 96.8352 60.6217 96.8352 49.4317C96.8352 38.312 104.858 30.1482 115.485 30.1482C126.183 30.1482 134.276 38.4526 134.276 49.5724C134.276 49.9947 134.276 51.0503 134.135 51.9651ZM115.485 35.6375C108.588 35.6375 103.591 40.4234 102.888 47.3907H128.083C127.45 40.4234 122.453 35.6375 115.485 35.6375Z" fill="#424B52"/>
<path d="M168.901 67.8705H162.004L153.277 54.4285L144.621 67.8705H137.724L149.899 49.15L138.076 31.0632H145.043L153.277 43.9422L161.582 31.0632H168.479L156.656 49.15L168.901 67.8705Z" fill="#424B52"/>
<path d="M210 49.4317C210 60.5512 201.977 68.7147 191.21 68.7147C180.442 68.7147 172.419 60.6216 172.419 49.4317C172.419 38.3823 180.442 30.2186 191.21 30.2186C201.977 30.2186 210 38.3119 210 49.4317ZM204.089 49.4317C204.089 41.3381 198.88 35.7079 191.21 35.7079C183.609 35.7079 178.331 41.3381 178.331 49.5018C178.331 57.6656 183.609 63.2958 191.21 63.2958C198.88 63.2958 204.089 57.6656 204.089 49.4317Z" fill="#424B52"/>
<path d="M30.3688 67.2733V63.6054C27.2388 66.4424 23.3509 67.8602 18.7056 67.8602C13.3253 67.8602 8.86331 66.0513 5.31809 62.4318C1.77184 58.8133 0 54.3146 0 48.9345C0 43.5555 1.77184 39.0567 5.31809 35.4372C8.86331 31.8187 13.3253 30.0089 18.7056 30.0089C23.3509 30.0089 27.2388 31.428 30.3688 34.2636V30.5958H36.6775V67.2733H30.3688ZM18.8521 61.9184C21.3945 61.9184 23.6684 61.3808 25.6742 60.3044C27.679 59.2295 29.2433 57.7865 30.3688 55.9766V41.8924C29.2433 40.0838 27.679 38.6408 25.6742 37.5646C23.6684 36.4895 21.3945 35.9506 18.8521 35.9506C15.282 35.9506 12.335 37.1862 10.013 39.6552C7.68971 42.1251 6.52845 45.2186 6.52845 48.9345C6.52845 52.6515 7.68971 55.745 10.013 58.2141C12.335 60.6839 15.282 61.9184 18.8521 61.9184Z" fill="#424B52"/>
<path d="M53.2589 17.0443H45.6184V68.7147H53.2589V17.0443Z" fill="#77C613"/>
<path d="M50.008 0H48.8693V77.434H50.008V0Z" fill="#77C613"/>
<path d="M13.6151 85.2386V98.2687H11.9941V85.2386H7.48433V83.7213H18.1041V85.2386H13.6151Z" fill="#6D6F71"/>
<path d="M24.5672 89.1869H23.9854C22.5722 89.1869 21.5331 89.6095 20.868 90.4548C20.2029 91.3001 19.8705 92.4221 19.8705 93.8211V98.2687H18.3534V87.8778H19.434L19.5795 90.6831C19.9672 89.7139 20.57 88.9792 21.3876 88.4804C22.2048 87.9817 23.1748 87.7323 24.297 87.7323H24.5672V89.1869Z" fill="#6D6F71"/>
<path d="M35.7685 98.2687H34.6877L34.6255 95.9205C34.2234 96.6686 33.6485 97.2681 32.9004 97.7181C32.1523 98.1685 31.3211 98.3937 30.4067 98.3937C28.9379 98.3937 27.705 97.8774 26.7075 96.845C25.71 95.813 25.2112 94.5559 25.2112 93.073C25.2112 91.5907 25.71 90.3299 26.7075 89.2908C27.705 88.2516 28.9379 87.7323 30.4067 87.7323C31.307 87.7323 32.1348 87.9575 32.8901 88.4079C33.6449 88.8578 34.2234 89.4573 34.6255 90.2055L34.6877 87.8778H35.7685V98.2687ZM27.8194 95.8372C28.5603 96.572 29.4575 96.9386 30.5105 96.9386C31.5633 96.9386 32.4641 96.572 33.2123 95.8372C33.9604 95.103 34.3344 94.1816 34.3344 93.073C34.3344 91.965 33.9604 91.04 33.2123 90.2991C32.4641 89.5576 31.5633 89.1869 30.5105 89.1869C29.4714 89.1869 28.5778 89.5576 27.8296 90.2991C27.0815 91.04 26.7075 91.965 26.7075 93.073C26.7075 94.1816 27.0779 95.103 27.8194 95.8372Z" fill="#6D6F71"/>
<path d="M48.1544 98.2687H47.0736L47.0114 95.9205C46.6093 96.6686 46.0344 97.2682 45.2863 97.7181C44.5382 98.1685 43.707 98.3937 42.7926 98.3937C41.3238 98.3937 40.0908 97.8775 39.0933 96.845C38.0959 95.8131 37.5971 94.5559 37.5971 93.073C37.5971 91.5907 38.0959 90.3299 39.0933 89.2908C40.0908 88.2516 41.3238 87.7323 42.7926 87.7323C43.6237 87.7323 44.3824 87.937 45.068 88.3452C45.7539 88.754 46.2838 89.3047 46.6579 89.9978V83.7213H48.1544V98.2687ZM40.2052 95.8372C40.9462 96.572 41.8434 96.9386 42.8964 96.9386C43.9492 96.9386 44.85 96.572 45.5981 95.8372C46.3463 95.103 46.7203 94.1816 46.7203 93.073C46.7203 91.965 46.3463 91.04 45.5981 90.2991C44.85 89.5576 43.9492 89.1869 42.8964 89.1869C41.8573 89.1869 40.9637 89.5576 40.2155 90.2991C39.4674 91.04 39.0933 91.965 39.0933 93.073C39.0933 94.1816 39.4638 95.103 40.2052 95.8372Z" fill="#6D6F71"/>
<path d="M55.2613 87.7323C56.3835 87.7323 57.3462 88.0022 58.1499 88.5426C58.9533 89.083 59.5492 89.8245 59.9372 90.7664C60.1035 91.1685 60.2038 91.6323 60.2387 92.1588C60.2729 92.6853 60.2351 93.108 60.1243 93.4268H51.5207C51.5207 94.5209 51.8842 95.3904 52.6117 96.0346C53.339 96.6789 54.2774 97.008 55.4276 97.0219C56.7436 97.0219 57.9422 96.6475 59.023 95.8994L59.8333 96.8141C58.4892 97.8672 57.0208 98.3937 55.4276 98.3937C53.8203 98.3793 52.511 97.881 51.4998 96.8969C50.4882 95.9133 49.9828 94.6392 49.9828 93.073C49.9828 91.5634 50.471 90.2955 51.4479 89.2702C52.4246 88.2449 53.6956 87.7323 55.2613 87.7323ZM55.2613 89.1247C54.2358 89.1247 53.3804 89.4435 52.6948 90.0805C52.0089 90.7181 51.6382 91.494 51.5829 92.4082H58.7528C58.7803 92.0483 58.7039 91.6534 58.5242 91.2235C58.2607 90.5865 57.845 90.0774 57.2771 89.6959C56.7089 89.3154 56.0372 89.1247 55.2613 89.1247Z" fill="#6D6F71"/>
<path d="M72.3023 85.2386V98.2687H70.6813V85.2386H66.1715V83.7213H76.7912V85.2386H72.3023Z" fill="#6D6F71"/>
<path d="M83.6906 87.7323C85.1039 87.7323 86.2086 88.1688 87.0055 89.0414C87.802 89.9145 88.2005 91.1269 88.2005 92.6781V98.2687H86.7042V92.7409C86.7042 91.5495 86.4165 90.6595 85.8417 90.0703C85.2666 89.4815 84.4804 89.1869 83.4829 89.1869C82.3882 89.1869 81.519 89.5473 80.8748 90.2677C80.2305 90.9881 79.9084 92.0066 79.9084 93.3224V98.2687H78.3913V83.7213H79.9084V89.9767C80.2686 89.2152 80.7984 88.6501 81.4982 88.283C82.1977 87.9159 82.9286 87.7323 83.6906 87.7323Z" fill="#6D6F71"/>
<path d="M95.2038 87.7323C96.3259 87.7323 97.2887 88.0022 98.0924 88.5426C98.8958 89.083 99.4917 89.8245 99.8796 90.7664C100.046 91.1685 100.146 91.6323 100.181 92.1588C100.215 92.6853 100.178 93.108 100.067 93.4268H91.4632C91.4632 94.5209 91.8267 95.3904 92.5542 96.0346C93.2815 96.6789 94.2199 97.008 95.3701 97.0219C96.6861 97.0219 97.8847 96.6475 98.9654 95.8994L99.7758 96.8141C98.4317 97.8672 96.9633 98.3937 95.3701 98.3937C93.7628 98.3793 92.4534 97.881 91.4423 96.8969C90.4307 95.9133 89.9253 94.6392 89.9253 93.073C89.9253 91.5634 90.4135 90.2955 91.3904 89.2702C92.3671 88.2449 93.6381 87.7323 95.2038 87.7323ZM95.2038 89.1247C94.1782 89.1247 93.3229 89.4435 92.6373 90.0805C91.9514 90.7181 91.5806 91.494 91.5254 92.4082H98.6953C98.7228 92.0483 98.6464 91.6534 98.4667 91.2235C98.2032 90.5865 97.7875 90.0774 97.2196 89.6959C96.6514 89.3154 95.9796 89.1247 95.2038 89.1247Z" fill="#6D6F71"/>
<path d="M107.507 83.7213H112.079C114.157 83.7213 115.909 84.4005 117.336 85.7579C118.763 87.1158 119.477 88.8614 119.477 90.9953C119.477 93.1286 118.767 94.8747 117.347 96.2321C115.926 97.59 114.171 98.2687 112.079 98.2687H107.507V83.7213ZM109.128 96.7514H112.079C113.741 96.7514 115.12 96.2321 116.214 95.193C117.309 94.1538 117.856 92.7548 117.856 90.9953C117.856 89.2358 117.309 87.8362 116.214 86.797C115.12 85.7579 113.741 85.2386 112.079 85.2386H109.128V96.7514Z" fill="#6D6F71"/>
<path d="M123.134 86.3399C122.954 86.506 122.732 86.5893 122.469 86.5893C122.206 86.5893 121.984 86.506 121.804 86.3399C121.624 86.1738 121.534 85.9728 121.534 85.7373C121.534 85.5018 121.624 85.3008 121.804 85.1347C121.984 84.9681 122.206 84.8853 122.469 84.8853C122.732 84.8853 122.954 84.9681 123.134 85.1347C123.314 85.3008 123.405 85.5018 123.405 85.7373C123.405 85.9728 123.314 86.1738 123.134 86.3399ZM121.7 98.2687V87.8778H123.217V98.2687H121.7Z" fill="#6D6F71"/>
<path d="M131.136 83.6174V84.9681H130.927C129.14 84.9681 128.247 85.7929 128.247 87.4413V87.8778H131.136V89.3119H128.226V98.2688H126.73V89.3119H125.212V87.8778H126.75V87.3997C126.75 86.0978 127.142 85.1173 127.925 84.4591C128.707 83.8015 129.688 83.5135 130.865 83.5968L131.136 83.6174Z" fill="#6D6F71"/>
<path d="M137.994 83.6174V84.9681H137.785C135.998 84.9681 135.105 85.7929 135.105 87.4413V87.8778H137.994V89.3119H135.084V98.2688H133.588V89.3119H132.07V87.8778H133.608V87.3997C133.608 86.0978 134 85.1173 134.783 84.4591C135.565 83.8015 136.546 83.5135 137.723 83.5968L137.994 83.6174Z" fill="#6D6F71"/>
<path d="M144.208 87.7323C145.329 87.7323 146.292 88.0022 147.096 88.5426C147.899 89.083 148.495 89.8245 148.883 90.7664C149.049 91.1685 149.15 91.6323 149.185 92.1588C149.219 92.6853 149.181 93.108 149.07 93.4268H140.466C140.466 94.5209 140.83 95.3904 141.557 96.0346C142.285 96.6789 143.223 97.008 144.374 97.0219C145.69 97.0219 146.888 96.6475 147.969 95.8994L148.78 96.8141C147.435 97.8672 145.966 98.3937 144.374 98.3937C142.766 98.3793 141.457 97.881 140.446 96.8969C139.434 95.9133 138.928 94.6392 138.928 93.073C138.928 91.5634 139.417 90.2955 140.394 89.2702C141.371 88.2449 142.641 87.7323 144.208 87.7323ZM144.208 89.1247C143.182 89.1247 142.327 89.4435 141.641 90.0805C140.955 90.7181 140.584 91.494 140.529 92.4082H147.699C147.727 92.0483 147.65 91.6534 147.47 91.2235C147.207 90.5865 146.791 90.0774 146.223 89.6959C145.655 89.3154 144.983 89.1247 144.208 89.1247Z" fill="#6D6F71"/>
<path d="M157.113 89.1869H156.531C155.118 89.1869 154.079 89.6095 153.414 90.4548C152.748 91.3001 152.416 92.4221 152.416 93.8211V98.2687H150.899V87.8778H151.98L152.125 90.6831C152.513 89.7139 153.116 88.9792 153.933 88.4804C154.751 87.9817 155.72 87.7323 156.843 87.7323H157.113V89.1869Z" fill="#6D6F71"/>
<path d="M163.035 87.7323C164.157 87.7323 165.12 88.0022 165.924 88.5426C166.727 89.083 167.323 89.8245 167.711 90.7664C167.877 91.1685 167.978 91.6323 168.013 92.1588C168.047 92.6853 168.009 93.108 167.898 93.4268H159.294C159.294 94.5209 159.658 95.3904 160.385 96.0346C161.113 96.6789 162.051 97.008 163.202 97.0219C164.518 97.0219 165.716 96.6475 166.797 95.8994L167.608 96.8141C166.263 97.8672 164.794 98.3937 163.202 98.3937C161.594 98.3793 160.285 97.881 159.274 96.8969C158.262 95.9133 157.756 94.6392 157.756 93.073C157.756 91.5634 158.245 90.2955 159.222 89.2702C160.199 88.2449 161.469 87.7323 163.035 87.7323ZM163.035 89.1247C162.01 89.1247 161.155 89.4435 160.469 90.0805C159.783 90.7181 159.412 91.494 159.357 92.4082H166.527C166.554 92.0483 166.478 91.6534 166.298 91.2235C166.035 90.5865 165.619 90.0774 165.051 89.6959C164.483 89.3154 163.811 89.1247 163.035 89.1247Z" fill="#6D6F71"/>
<path d="M175.027 87.7323C176.439 87.7323 177.544 88.1688 178.341 89.0414C179.137 89.9144 179.536 91.1269 179.536 92.6781V98.2687H178.04V92.7409C178.04 91.5495 177.752 90.6595 177.177 90.0702C176.602 89.4815 175.816 89.1869 174.818 89.1869C173.724 89.1869 172.855 89.5473 172.21 90.2677C171.566 90.988 171.244 92.0066 171.244 93.3224V98.2687H169.727V87.8778H170.808L170.891 90.2471C171.278 89.4018 171.847 88.7714 172.595 88.3555C173.343 87.94 174.153 87.7323 175.027 87.7323Z" fill="#6D6F71"/>
<path d="M186.581 87.7323C188.244 87.7323 189.608 88.3766 190.675 89.6651L189.761 90.6415C188.874 89.6723 187.814 89.1869 186.581 89.1869C185.528 89.1869 184.631 89.5576 183.89 90.2991C183.148 91.04 182.778 91.965 182.778 93.073C182.778 94.1816 183.148 95.103 183.89 95.8372C184.631 96.572 185.528 96.9386 186.581 96.9386C187.828 96.9386 188.888 96.4609 189.761 95.5045L190.675 96.4815C189.608 97.7561 188.244 98.3937 186.581 98.3937C185.099 98.3937 183.841 97.8738 182.81 96.8347C181.777 95.7956 181.261 94.542 181.261 93.073C181.261 91.5907 181.781 90.3299 182.82 89.2908C183.859 88.2516 185.113 87.7323 186.581 87.7323Z" fill="#6D6F71"/>
<path d="M197.055 87.7323C198.177 87.7323 199.14 88.0022 199.944 88.5426C200.747 89.083 201.343 89.8245 201.731 90.7664C201.897 91.1685 201.997 91.6323 202.032 92.1588C202.067 92.6853 202.029 93.108 201.918 93.4268H193.314C193.314 94.5209 193.678 95.3904 194.405 96.0346C195.133 96.6789 196.071 97.008 197.221 97.0219C198.538 97.0219 199.736 96.6475 200.816 95.8994L201.627 96.8141C200.283 97.8672 198.814 98.3937 197.221 98.3937C195.614 98.3793 194.304 97.881 193.294 96.8969C192.282 95.9133 191.776 94.6392 191.776 93.073C191.776 91.5634 192.265 90.2955 193.242 89.2702C194.219 88.2449 195.489 87.7323 197.055 87.7323ZM197.055 89.1247C196.029 89.1247 195.174 89.4435 194.488 90.0805C193.803 90.7181 193.432 91.494 193.377 92.4082H200.546C200.574 92.0483 200.498 91.6534 200.318 91.2235C200.054 90.5865 199.639 90.0774 199.071 89.6959C198.503 89.3154 197.831 89.1247 197.055 89.1247Z" fill="#6D6F71"/>
</svg>
