<svg width="194" height="42" viewBox="0 0 194 42" fill="none" xmlns="http://www.w3.org/2000/svg">
<g clip-path="url(#clip0_2244_851)">
<path d="M6.20071 7.47679H24.8693C28.0005 7.47679 30.949 8.2606 33.5434 9.62901C30.6733 3.92345 24.7818 0 17.9604 0H0V34.9088H6.20071V7.47679Z" fill="#317AC1"/>
<path d="M24.8692 41.0824H9.9386V11.2156H24.8692C33.1151 11.2156 39.7998 17.9015 39.7998 26.149V26.149C39.7998 34.3965 33.1151 41.0824 24.8692 41.0824Z" fill="#384454"/>
<path d="M64.2678 14.6862C66.0017 14.6862 67.3523 15.1499 68.3196 16.0766C69.2857 17.004 69.7699 18.2855 69.7699 19.9198C69.7699 21.5555 69.2857 22.8363 68.3196 23.7631C67.3523 24.6904 66.0017 25.1541 64.2678 25.1541H59.4531V14.6862H64.2678ZM64.0281 23.3444C65.1743 23.3444 66.0491 23.0408 66.6526 22.4323C67.2549 21.8244 67.5567 20.9871 67.5567 19.9198C67.5567 18.8532 67.2549 18.0159 66.6526 17.408C66.0491 16.7995 65.1743 16.4953 64.0281 16.4953H61.6664V23.3444H64.0281Z" fill="#384454"/>
<path d="M71.9078 16.2415V14.2676H74.1648V16.2415H71.9078ZM71.982 25.1541V17.318H74.0906V25.1541H71.982Z" fill="#384454"/>
<path d="M83.1359 17.318H85.1095V23.9876C85.1095 25.5027 84.7603 26.6047 84.0631 27.2923C83.3647 27.9805 82.2781 28.3243 80.8034 28.3243C79.6171 28.3243 78.6729 28.0973 77.9708 27.644C77.2675 27.1901 76.8806 26.5098 76.8113 25.6025H78.7848C78.9442 26.3503 79.6171 26.724 80.8034 26.724C81.5809 26.724 82.1418 26.5451 82.4862 26.1861C82.8293 25.827 83.0009 25.2739 83.0009 24.5261V23.6438C82.3341 24.5212 81.3668 24.96 80.1014 24.96C78.9442 24.96 78.0073 24.6034 77.2894 23.8902C76.5728 23.1777 76.2138 22.2285 76.2138 21.0419C76.2138 19.8657 76.5752 18.9207 77.298 18.2076C78.0195 17.495 78.9588 17.1385 80.116 17.1385C81.5006 17.1385 82.5081 17.6374 83.1359 18.6341V17.318ZM80.7292 23.4047C81.4665 23.4047 82.0567 23.1929 82.5008 22.7688C82.9437 22.3453 83.1663 21.7891 83.1663 21.1015C83.1663 20.4133 82.9437 19.8529 82.5008 19.4191C82.0567 18.9852 81.4665 18.7686 80.7292 18.7686C80.0016 18.7686 79.4151 18.9852 78.9722 19.4191C78.5281 19.8529 78.3067 20.4133 78.3067 21.1015C78.3067 21.7891 78.5281 22.3453 78.9722 22.7688C79.4151 23.1929 80.0016 23.4047 80.7292 23.4047Z" fill="#384454"/>
<path d="M87.5466 16.2415V14.2676H89.8037V16.2415H87.5466ZM87.6209 25.1541V17.318H89.7295V25.1541H87.6209Z" fill="#384454"/>
<path d="M97.788 18.9031H95.5906V22.3276C95.5906 22.7962 95.6672 23.1205 95.8218 23.3C95.9763 23.4789 96.278 23.5689 96.727 23.5689C96.9558 23.5689 97.3098 23.5391 97.788 23.4789V25.1839C97.2892 25.2636 96.7915 25.3037 96.2926 25.3037C95.3058 25.3037 94.5904 25.1017 94.1475 24.6977C93.7034 24.2943 93.4819 23.6091 93.4819 22.6416V18.9031H91.568V17.3478H92.9733C93.2033 17.3478 93.3651 17.3058 93.46 17.2206C93.5537 17.136 93.6012 16.9942 93.6012 16.7947V15.4785H95.5906V17.318H97.788V18.9031Z" fill="#384454"/>
<path d="M103.813 17.1385C105.099 17.1385 106.084 17.4202 106.766 17.9836C107.449 18.5471 107.791 19.3917 107.791 20.518V25.1541H105.817V23.6438C105.14 24.7701 104.013 25.3336 102.438 25.3336C101.452 25.3336 100.703 25.1194 100.195 24.6904C99.6874 24.262 99.4331 23.6986 99.4331 23.0006C99.4331 22.2333 99.7494 21.6546 100.382 21.2658C101.015 20.877 101.954 20.633 103.2 20.5332L105.682 20.3391V20.0695C105.682 19.6308 105.528 19.2797 105.219 19.0156C104.91 18.7516 104.441 18.614 103.813 18.6043C102.657 18.6043 102.014 18.9834 101.885 19.7403H99.9258C99.966 19.1124 100.178 18.5994 100.562 18.2003C100.945 17.8017 101.407 17.5248 101.944 17.3703C102.483 17.2157 103.105 17.1385 103.813 17.1385ZM103.066 23.8677C103.854 23.8677 104.486 23.6785 104.964 23.3C105.444 22.9209 105.682 22.4524 105.682 21.8938V21.5798L103.47 21.7593C102.174 21.8694 101.526 22.2479 101.526 22.896C101.526 23.1953 101.655 23.432 101.915 23.6061C102.174 23.7807 102.558 23.8677 103.066 23.8677Z" fill="#384454"/>
<path d="M110.228 14.1477H112.335V25.1541H110.228V14.1477Z" fill="#384454"/>
<path d="M124.491 17.1385C125.637 17.1385 126.569 17.5048 127.287 18.238C128.005 18.9706 128.364 19.9704 128.364 21.236C128.364 22.5023 128.005 23.5014 127.287 24.2346C126.569 24.9673 125.642 25.3336 124.505 25.3336C123.837 25.3336 123.228 25.1912 122.674 24.907C122.121 24.6235 121.685 24.2073 121.366 23.6584V25.1541H119.407V14.1477H121.516V18.5593C122.163 17.6125 123.155 17.1385 124.491 17.1385ZM122.077 23.0304C122.51 23.4789 123.1 23.7034 123.848 23.7034C124.595 23.7034 125.188 23.4789 125.627 23.0304C126.065 22.582 126.285 21.9838 126.285 21.236C126.285 20.4882 126.065 19.89 125.627 19.4416C125.188 18.9931 124.595 18.7686 123.848 18.7686C123.1 18.7686 122.51 18.9931 122.077 19.4416C121.642 19.89 121.426 20.4882 121.426 21.236C121.426 21.9838 121.642 22.582 122.077 23.0304Z" fill="#384454"/>
<path d="M136.647 17.318H138.755V25.1541H136.796V23.4789C136.178 24.7153 135.107 25.3336 133.582 25.3336C132.565 25.3336 131.785 25.0397 131.241 24.4513C130.699 23.8628 130.427 23.0207 130.427 21.9242V17.318H132.535V21.281C132.535 22.8266 133.158 23.5988 134.404 23.5988C135.122 23.5988 135.675 23.3475 136.063 22.8436C136.453 22.3404 136.647 21.6899 136.647 20.8922V17.318Z" fill="#384454"/>
<path d="M146.664 19.6959C146.583 19.3467 146.352 19.0777 145.969 18.8885C145.584 18.6992 145.094 18.6043 144.495 18.6043C143.518 18.6043 143.03 18.8586 143.03 19.3667C143.03 19.7556 143.409 20.0397 144.167 20.2192L146.364 20.6975C148.009 21.0668 148.832 21.8244 148.832 22.9708C148.832 23.7685 148.466 24.3612 147.733 24.75C147.001 25.1388 146.005 25.3336 144.75 25.3336C142.188 25.3336 140.818 24.4811 140.638 22.7761L142.583 22.7019C142.721 23.4789 143.479 23.8677 144.854 23.8677C146.121 23.8677 146.754 23.6042 146.754 23.0755C146.754 22.7067 146.31 22.4128 145.423 22.1932L143.165 21.6997C141.68 21.3407 140.938 20.588 140.938 19.4416C140.938 18.9031 141.107 18.457 141.446 18.1029C141.784 17.7494 142.213 17.4999 142.731 17.3557C143.249 17.2109 143.853 17.1385 144.54 17.1385C145.657 17.1385 146.587 17.3405 147.329 17.7445C148.071 18.1479 148.497 18.7686 148.608 19.6059L146.664 19.6959Z" fill="#384454"/>
<path d="M150.746 16.2415V14.2676H153.003V16.2415H150.746ZM150.82 25.1541V17.318H152.929V25.1541H150.82Z" fill="#384454"/>
<path d="M160.628 17.1385C161.655 17.1385 162.435 17.4202 162.968 17.9836C163.501 18.5471 163.769 19.3722 163.769 20.4584V25.1541H161.66V21.1015C161.66 20.364 161.515 19.8079 161.227 19.4343C160.937 19.0601 160.469 18.8732 159.822 18.8732C159.093 18.8732 158.533 19.1002 158.139 19.5535C157.745 20.0075 157.549 20.6227 157.549 21.4003V25.1541H155.44V17.318H157.399V18.8732C158.027 17.7171 159.104 17.1385 160.628 17.1385Z" fill="#384454"/>
<path d="M174.788 21.6248V21.864H167.94C168.139 23.2002 169.002 23.8677 170.526 23.8677C171.513 23.8677 172.21 23.5489 172.619 22.9112L174.668 23.0158C174.419 23.7533 173.941 24.3241 173.233 24.7281C172.524 25.1315 171.623 25.3336 170.526 25.3336C169.071 25.3336 167.923 24.9922 167.081 24.3089C166.237 23.6261 165.816 22.6021 165.816 21.236C165.816 19.8803 166.233 18.8586 167.065 18.1704C167.897 17.4829 169.017 17.1385 170.422 17.1385C173.332 17.1385 174.788 18.6341 174.788 21.6248ZM170.422 18.6043C169.754 18.6043 169.203 18.7637 168.77 19.0826C168.336 19.402 168.064 19.8852 167.954 20.5332H172.709C172.659 19.9351 172.436 19.4641 172.036 19.1203C171.637 18.7759 171.1 18.6043 170.422 18.6043Z" fill="#384454"/>
<path d="M182.278 19.6959C182.198 19.3467 181.966 19.0777 181.583 18.8885C181.199 18.6992 180.708 18.6043 180.11 18.6043C179.133 18.6043 178.645 18.8586 178.645 19.3667C178.645 19.7556 179.023 20.0397 179.781 20.2192L181.979 20.6975C183.624 21.0668 184.446 21.8244 184.446 22.9708C184.446 23.7685 184.08 24.3612 183.347 24.75C182.615 25.1388 181.62 25.3336 180.364 25.3336C177.803 25.3336 176.433 24.4811 176.253 22.7761L178.197 22.7019C178.336 23.4789 179.094 23.8677 180.469 23.8677C181.735 23.8677 182.368 23.6042 182.368 23.0755C182.368 22.7067 181.924 22.4128 181.037 22.1932L178.78 21.6997C177.294 21.3407 176.552 20.588 176.552 19.4416C176.552 18.9031 176.721 18.457 177.06 18.1029C177.399 17.7494 177.827 17.4999 178.345 17.3557C178.864 17.2109 179.467 17.1385 180.155 17.1385C181.272 17.1385 182.201 17.3405 182.943 17.7445C183.686 18.1479 184.112 18.7686 184.222 19.6059L182.278 19.6959Z" fill="#384454"/>
<path d="M191.832 19.6959C191.751 19.3467 191.52 19.0777 191.137 18.8885C190.753 18.6992 190.262 18.6043 189.664 18.6043C188.686 18.6043 188.199 18.8586 188.199 19.3667C188.199 19.7556 188.577 20.0397 189.335 20.2192L191.532 20.6975C193.178 21.0668 194 21.8244 194 22.9708C194 23.7685 193.634 24.3612 192.901 24.75C192.169 25.1388 191.174 25.3336 189.918 25.3336C187.357 25.3336 185.987 24.4811 185.806 22.7761L187.751 22.7019C187.89 23.4789 188.648 23.8677 190.022 23.8677C191.289 23.8677 191.922 23.6042 191.922 23.0755C191.922 22.7067 191.478 22.4128 190.591 22.1932L188.334 21.6997C186.848 21.3407 186.106 20.588 186.106 19.4416C186.106 18.9031 186.275 18.457 186.614 18.1029C186.953 17.7494 187.381 17.4999 187.899 17.3557C188.418 17.2109 189.021 17.1385 189.709 17.1385C190.826 17.1385 191.755 17.3405 192.497 17.7445C193.24 18.1479 193.665 18.7686 193.776 19.6059L191.832 19.6959Z" fill="#384454"/>
</g>
<defs>
<clipPath id="clip0_2244_851">
<rect width="194" height="41.0824" fill="white"/>
</clipPath>
</defs>
</svg>
